<svg width="94" height="94" viewBox="0 0 94 94" fill="none" xmlns="http://www.w3.org/2000/svg">
<path d="M0 47C0 49.3957 4.13064 51.4413 4.49149 53.7356C4.86196 56.0919 1.56834 59.3076 2.28899 61.5272C3.02245 63.7862 7.58333 64.4524 8.64882 66.5386C9.72498 68.6471 7.59187 72.7287 8.97444 74.628C10.3634 76.5369 14.9062 75.7628 16.5717 77.4283C18.2372 79.0938 17.4631 83.6366 19.372 85.0256C21.2724 86.4081 25.3539 84.275 27.4614 85.3512C29.5476 86.4167 30.2138 90.9776 32.4728 91.711C34.7319 92.4445 37.9081 89.138 40.2644 89.5085C42.6206 89.879 44.6043 94 47 94C49.3957 94 51.4413 89.8694 53.7356 89.5085C56.0919 89.138 59.3076 92.4317 61.5272 91.711C63.7862 90.9776 64.4524 86.4167 66.5386 85.3512C68.6471 84.275 72.7287 86.4081 74.628 85.0256C76.5369 83.6366 75.7629 79.0938 77.4283 77.4283C79.0938 75.7628 83.6366 76.5369 85.0256 74.628C86.4145 72.7191 84.275 68.6461 85.3512 66.5386C86.4273 64.4311 90.9776 63.7862 91.711 61.5272C92.4317 59.3076 89.138 56.0919 89.5085 53.7356C89.8694 51.4402 94 49.3957 94 47C94 44.6043 89.8694 42.5587 89.5085 40.2644C89.138 37.9081 92.4317 34.6924 91.711 32.4728C90.9776 30.2138 86.4167 29.5476 85.3512 27.4614C84.275 25.3529 86.4081 21.2713 85.0256 19.372C83.643 17.4727 79.0938 18.2371 77.4283 16.5717C75.7629 14.9062 76.5369 10.3634 74.628 8.97444C72.7276 7.59187 68.6461 9.72499 66.5386 8.64882C64.4524 7.58333 63.7862 3.02244 61.5272 2.28899C59.3076 1.56834 56.0919 4.86196 53.7356 4.49149C51.3794 4.12103 49.3968 0 47 0C44.6032 0 42.5587 4.13064 40.2644 4.49149C37.9081 4.86196 34.6924 1.56834 32.4728 2.28899C30.2138 3.02244 29.5476 7.58333 27.4614 8.64882C25.3529 9.72499 21.2713 7.59187 19.372 8.97444C17.4631 10.3634 18.2372 14.9062 16.5717 16.5717C14.9062 18.2371 10.3634 17.4631 8.97444 19.372C7.59187 21.2724 9.72498 25.3539 8.64882 27.4614C7.58333 29.5476 3.02245 30.2138 2.28899 32.4728C1.56834 34.6924 4.86196 37.9081 4.49149 40.2644C4.13064 42.5598 0 44.6043 0 47Z" fill="#F55252"/>
<mask id="mask0_1509_1283" style="mask-type:alpha" maskUnits="userSpaceOnUse" x="0" y="0" width="94" height="94">
<path d="M-3.59379e-07 47C-3.59379e-07 49.3957 4.13064 51.4413 4.49149 53.7356C4.86196 56.0919 1.56834 59.3076 2.28899 61.5272C3.02244 63.7862 7.58333 64.4524 8.64882 66.5386C9.72499 68.6471 7.59187 72.7287 8.97444 74.628C10.3634 76.5369 14.9062 75.7628 16.5717 77.4283C18.2372 79.0938 17.4631 83.6366 19.372 85.0256C21.2724 86.4081 25.3539 84.275 27.4614 85.3512C29.5476 86.4167 30.2138 90.9776 32.4728 91.711C34.7319 92.4445 37.9081 89.138 40.2644 89.5085C42.6206 89.879 44.6043 94 47 94C49.3957 94 51.4413 89.8694 53.7356 89.5085C56.0919 89.138 59.3076 92.4317 61.5272 91.711C63.7862 90.9776 64.4524 86.4167 66.5386 85.3512C68.6471 84.275 72.7287 86.4081 74.628 85.0256C76.5369 83.6366 75.7629 79.0938 77.4283 77.4283C79.0938 75.7628 83.6366 76.5369 85.0256 74.628C86.4145 72.7191 84.275 68.6461 85.3512 66.5386C86.4273 64.4311 90.9776 63.7862 91.711 61.5272C92.4317 59.3076 89.138 56.0919 89.5085 53.7356C89.8694 51.4402 94 49.3957 94 47C94 44.6043 89.8694 42.5587 89.5085 40.2644C89.138 37.9081 92.4317 34.6924 91.711 32.4728C90.9776 30.2138 86.4167 29.5476 85.3512 27.4614C84.275 25.3529 86.4081 21.2713 85.0256 19.372C83.643 17.4727 79.0938 18.2371 77.4283 16.5717C75.7629 14.9062 76.5369 10.3634 74.628 8.97444C72.7276 7.59187 68.6461 9.72498 66.5386 8.64882C64.4524 7.58333 63.7862 3.02244 61.5272 2.28899C59.3076 1.56834 56.0919 4.86196 53.7356 4.49149C51.3794 4.12103 49.3968 0 47 0C44.6032 0 42.5587 4.13064 40.2644 4.49149C37.9081 4.86196 34.6924 1.56834 32.4728 2.28899C30.2138 3.02244 29.5476 7.58333 27.4614 8.64882C25.3529 9.72498 21.2713 7.59187 19.372 8.97444C17.4631 10.3634 18.2372 14.9062 16.5717 16.5717C14.9062 18.2371 10.3634 17.4631 8.97444 19.372C7.59187 21.2724 9.72499 25.3539 8.64882 27.4614C7.58333 29.5476 3.02244 30.2138 2.28899 32.4728C1.56834 34.6924 4.86196 37.9081 4.49149 40.2644C4.13064 42.5598 -3.59379e-07 44.6043 -3.59379e-07 47Z" fill="#F55252"/>
</mask>
<g mask="url(#mask0_1509_1283)">
<path d="M38.5858 66V63.9916C39.8578 62.9428 40.8954 62.0446 41.6988 61.297C42.5133 60.5494 43.1158 59.88 43.5063 59.2886C43.8969 58.6861 44.0921 58.0947 44.0921 57.5145C44.0921 56.9343 43.908 56.5048 43.5398 56.2258C43.1716 55.9469 42.703 55.8074 42.1339 55.8074C41.8662 55.8074 41.5761 55.8409 41.2636 55.9078C40.9512 55.9636 40.6276 56.0473 40.2929 56.1589L40.5607 55.7572L40.2594 57.6484H38.8368L38.6527 54.6526C39.3445 54.4406 40.0195 54.2844 40.6779 54.184C41.3362 54.0724 41.9554 54.0166 42.5356 54.0166C43.3278 54.0166 44.0308 54.1226 44.6444 54.3346C45.2581 54.5466 45.7379 54.8869 46.0838 55.3555C46.4297 55.8242 46.6026 56.4322 46.6026 57.1798C46.6026 57.9943 46.3962 58.7754 45.9834 59.5229C45.5705 60.2705 44.9736 61.0404 44.1925 61.8326C43.4115 62.6136 42.4631 63.4672 41.3473 64.3933V64.1255H46.8537V66H38.5858ZM52.6692 66.2008C51.6204 66.2008 50.7668 65.9777 50.1085 65.5314C49.4502 65.0851 48.9649 64.4212 48.6524 63.5397C48.3512 62.6471 48.2006 61.5369 48.2006 60.2091C48.2006 58.8479 48.3568 57.7098 48.6692 56.7949C48.9928 55.8688 49.4949 55.177 50.1755 54.7195C50.8673 54.2509 51.771 54.0166 52.8868 54.0166C53.9914 54.0166 54.8617 54.2342 55.4977 54.6693C56.1337 55.1045 56.5856 55.7628 56.8534 56.6442C57.1323 57.5145 57.2718 58.6024 57.2718 59.9079C57.2718 61.2803 57.11 62.4351 56.7864 63.3724C56.4629 64.3096 55.9663 65.0181 55.2969 65.4979C54.6274 65.9665 53.7515 66.2008 52.6692 66.2008ZM52.7194 64.3766C53.2439 64.3766 53.6511 64.2203 53.9412 63.9079C54.2425 63.5955 54.4545 63.1157 54.5772 62.4686C54.7111 61.8103 54.778 60.9902 54.778 60.0083C54.7892 59.0264 54.7334 58.2286 54.6107 57.615C54.4879 57.0013 54.2815 56.555 53.9914 56.276C53.7013 55.9859 53.3052 55.8409 52.8031 55.8409C52.2676 55.8409 51.8436 55.9971 51.5311 56.3095C51.2187 56.6219 50.9956 57.0961 50.8617 57.7321C50.7389 58.3681 50.6776 59.1715 50.6776 60.1422C50.6776 61.1018 50.7389 61.894 50.8617 62.5188C50.9956 63.1436 51.2131 63.6122 51.5144 63.9247C51.8157 64.2259 52.2173 64.3766 52.7194 64.3766Z" fill="white"/>
<path d="M39.5526 71.2441V71.0438L39.9305 70.9569L39.8738 71.0401V70.2086L39.9116 70.356L39.1179 68.8254L39.1973 68.8897L38.8685 68.8179V68.6176L39.8662 68.5987V68.799L39.4845 68.8783L39.5185 68.8065L40.1346 70.0726H40.059L40.6825 68.8217L40.7166 68.8897L40.3311 68.8179V68.6176L41.2759 68.5987V68.799L40.9471 68.8783L41.0265 68.8141L40.229 70.356L40.2593 70.2086V71.0401L40.1988 70.9569L40.5767 71.0438V71.2441H39.5526ZM44.1369 70.5941H44.3713L44.3675 71.2441H42.4401V71.0438L42.8067 70.9569L42.75 71.0401V68.8141L42.8029 68.8935L42.4401 68.8179V68.6176L43.1279 68.5987H44.3221V69.2223H44.0916L44.0198 68.8254L44.0954 68.8821H43.0712L43.1354 68.8179V69.8194L43.0712 69.7551H44.0425V70.031H43.0712L43.1354 69.9554V71.0249L43.0712 70.9607H44.1445L44.0651 71.0249L44.1369 70.5941ZM48.0463 71.0476L47.9443 70.9569L48.2882 71.0438V71.2441H47.2716V71.0438L47.642 70.9645L47.6042 71.0249L47.4228 70.4581L47.487 70.511H46.3835L46.4402 70.4581L46.2437 71.0174L46.2248 70.9683L46.5838 71.0438V71.2441H45.6352V71.0438L45.9715 70.9607L45.8771 71.0401L46.7879 68.6025L47.1847 68.5911L48.0463 71.0476ZM46.4931 70.2918L46.4591 70.2351H47.419L47.3774 70.2956L46.9164 68.8179H47.0071L46.4931 70.2918ZM49.4318 71.2441V71.0438L49.7946 70.9607L49.7417 71.0401V68.8141L49.8135 68.8972L49.4318 68.8179V68.6176L50.1423 68.5987H50.558C50.8503 68.5987 51.0707 68.6591 51.2194 68.7801C51.368 68.901 51.4423 69.0761 51.4423 69.3054C51.4423 69.512 51.3768 69.6821 51.2458 69.8156C51.1173 69.9491 50.9183 70.031 50.6487 70.0612V70.0159C50.747 70.0234 50.8263 70.0436 50.8868 70.0764C50.9498 70.1066 51.0027 70.1494 51.0455 70.2049C51.0884 70.2578 51.1287 70.3233 51.1665 70.4014L51.4801 71.0249L51.363 70.9494L51.6918 71.0438V71.2441H51.174L50.8301 70.5034C50.7822 70.4001 50.7381 70.3207 50.6978 70.2653C50.6575 70.2074 50.6084 70.1671 50.5504 70.1444C50.4925 70.1217 50.4081 70.1104 50.2972 70.1104L50.0591 70.1142L50.1272 70.0537V71.0401L50.0705 70.9569L50.49 71.0438V71.2441H49.4318ZM50.1272 69.9365L50.0591 69.8383H50.4031C50.6122 69.8383 50.7709 69.7954 50.8792 69.7098C50.9901 69.6241 51.0455 69.4969 51.0455 69.3281C51.0455 69.1845 51.0002 69.0749 50.9095 68.9993C50.8213 68.9212 50.689 68.8821 50.5126 68.8821H50.0591L50.1272 68.8141V69.9365ZM53.4647 69.2487C53.4647 69.3369 53.4899 69.41 53.5403 69.4679C53.5907 69.5233 53.6575 69.5699 53.7406 69.6077C53.8238 69.6455 53.9145 69.6795 54.0127 69.7098C54.1135 69.74 54.213 69.774 54.3113 69.8118C54.4121 69.8496 54.504 69.8962 54.5872 69.9516C54.6703 70.0071 54.7371 70.0789 54.7875 70.1671C54.8378 70.2552 54.863 70.3661 54.863 70.4996C54.863 70.6785 54.8164 70.8259 54.7232 70.9418C54.6325 71.0577 54.5103 71.1434 54.3566 71.1988C54.2055 71.2542 54.0379 71.2819 53.854 71.2819C53.7255 71.2819 53.5945 71.2693 53.4609 71.2441C53.3274 71.2164 53.1951 71.1761 53.0641 71.1232L53.0868 70.4732H53.3136L53.3854 70.9456L53.3438 70.8738C53.4269 70.9116 53.5139 70.9405 53.6046 70.9607C53.6978 70.9809 53.7885 70.9909 53.8767 70.9909C53.985 70.9909 54.0845 70.9746 54.1752 70.9418C54.2684 70.909 54.3428 70.8599 54.3982 70.7944C54.4536 70.7289 54.4813 70.647 54.4813 70.5488C54.4813 70.4555 54.4561 70.38 54.4058 70.322C54.3554 70.2641 54.2886 70.2162 54.2055 70.1784C54.1223 70.1406 54.0316 70.1066 53.9334 70.0764C53.8351 70.0461 53.7356 70.0134 53.6348 69.9781C53.5365 69.9428 53.4458 69.8987 53.3627 69.8458C53.2795 69.7904 53.2128 69.7199 53.1624 69.6342C53.112 69.546 53.0868 69.4364 53.0868 69.3054C53.0868 69.1366 53.1271 68.998 53.2077 68.8897C53.2909 68.7788 53.4017 68.6969 53.5403 68.644C53.6814 68.5886 53.8389 68.5609 54.0127 68.5609C54.1362 68.5609 54.2634 68.5747 54.3944 68.6025C54.528 68.6277 54.659 68.6667 54.7875 68.7196L54.7534 69.3356H54.5229L54.4587 68.8972L54.5078 68.9464C54.4372 68.9161 54.3604 68.8935 54.2773 68.8783C54.1941 68.8607 54.111 68.8519 54.0278 68.8519C53.9296 68.8519 53.8376 68.8657 53.7519 68.8935C53.6663 68.9187 53.597 68.9602 53.5441 69.0182C53.4912 69.0761 53.4647 69.153 53.4647 69.2487Z" fill="white"/>
<rect x="-1" y="39" width="96" height="11" fill="white"/>
</g>
<path fill-rule="evenodd" clip-rule="evenodd" d="M54.9707 21.1401H52.9844V22.4254H54.9707V21.1401ZM39.4311 21.1402H37.4448V22.4255H39.4311V21.1402Z" fill="white"/>
<path fill-rule="evenodd" clip-rule="evenodd" d="M49.2992 30.3292V19.7588H51.1742V30.3292H49.2992ZM69.9927 30.3848C69.1789 30.3848 68.4742 30.2254 67.8786 29.9066C67.2829 29.5795 66.8215 29.1222 66.4944 28.535C66.1756 27.9394 66.0162 27.2389 66.0162 26.4335C66.0162 25.6281 66.1756 24.936 66.4944 24.3572C66.8131 23.7699 67.2662 23.3211 67.8534 23.0107C68.4407 22.6919 69.1286 22.5325 69.9171 22.5325C70.689 22.5325 71.3517 22.6835 71.9054 22.9855C72.4591 23.2792 72.8869 23.707 73.1889 24.2691C73.491 24.8228 73.642 25.4813 73.642 26.2447V26.8991H67.8282C67.8954 27.5367 68.1135 28.0275 68.4826 28.3714C68.8601 28.707 69.3593 28.8748 69.9801 28.8748C70.4415 28.8748 70.8148 28.7909 71.1 28.6231C71.3937 28.4469 71.5992 28.1868 71.7166 27.8429H73.6042C73.428 28.6399 73.0212 29.2649 72.3836 29.7179C71.7544 30.1625 70.9574 30.3848 69.9927 30.3848ZM67.866 25.6281H71.8425C71.767 25.108 71.5656 24.7137 71.2385 24.4453C70.9113 24.1684 70.4708 24.03 69.9171 24.03C69.3719 24.03 68.923 24.1684 68.5707 24.4453C68.2183 24.7221 67.9834 25.1164 67.866 25.6281ZM57.2059 30.3749V24.6996H56.2747V22.8247H58.2V24.0327H58.7285C59.0138 23.6049 59.3787 23.2735 59.8233 23.0386C60.268 22.8037 60.8133 22.6862 61.4592 22.6862C62.4911 22.6862 63.2881 22.9715 63.8502 23.5419C64.4206 24.1124 64.7059 24.8716 64.7059 25.8196V30.3749H62.8309V26.172C62.8309 25.5763 62.6715 25.1233 62.3527 24.8129C62.0423 24.5025 61.5767 24.3473 60.9559 24.3473C60.3519 24.3473 59.8863 24.5025 59.5591 24.8129C59.2403 25.1233 59.0809 25.5763 59.0809 26.172V30.3749H57.2059ZM53.0453 22.857V30.4073H54.9203V22.857H53.0453ZM43.2514 26.5278L40.2942 30.391H42.3706L44.3336 27.8113L46.2841 30.391H48.3856L45.4284 26.5278L48.2346 22.8407H46.1709L44.3462 25.2191L42.5342 22.8407H40.4452L43.2514 26.5278ZM37.5167 30.4073V22.857H39.3917V30.4073H37.5167ZM31.6728 24.7912V30.4665H33.5226V26.6159C33.5226 25.9615 33.6904 25.4372 34.026 25.0429C34.3699 24.6486 34.8817 24.4514 35.5612 24.4514H36.2785V22.8407H35.6493C35.0872 22.8407 34.588 22.9707 34.1518 23.2308C33.7156 23.4909 33.3926 23.8726 33.1829 24.3759H32.6543V22.9162H30.7416V24.7912H31.6728ZM20.9705 30.4132V20.2203H26.1173C26.7297 20.2203 27.2624 20.3294 27.7154 20.5475C28.1685 20.7572 28.5208 21.0592 28.7725 21.4535C29.0325 21.8394 29.1626 22.2925 29.1626 22.8126C29.1626 23.3411 29.0158 23.7899 28.7221 24.1591C28.4285 24.5198 28.051 24.7757 27.5896 24.9267V24.977C27.9671 25.0609 28.3111 25.2161 28.6215 25.4426C28.9403 25.6691 29.1919 25.9543 29.3765 26.2983C29.5695 26.6423 29.6659 27.0491 29.6659 27.5189C29.6659 28.0978 29.5233 28.6053 29.2381 29.0416C28.9612 29.4694 28.5711 29.805 28.0678 30.0483C27.5728 30.2916 26.9982 30.4132 26.3438 30.4132H20.9705ZM22.8958 28.7521H25.9915C26.5535 28.7521 26.9856 28.6305 27.2876 28.3872C27.5896 28.1355 27.7406 27.7748 27.7406 27.305C27.7406 26.8436 27.5896 26.4954 27.2876 26.2605C26.9856 26.0173 26.5577 25.8956 26.004 25.8956H22.8958V28.7521ZM22.8958 24.3604H25.853C26.2977 24.3604 26.6374 24.2555 26.8723 24.0458C27.1156 23.8277 27.2373 23.5215 27.2373 23.1272C27.2373 22.7161 27.1156 22.4057 26.8723 22.196C26.6374 21.9862 26.2977 21.8814 25.853 21.8814H22.8958V24.3604ZM77 28.7658H74.6632V30.4016H77V28.7658Z" fill="white"/>
<path d="M19.2861 47L18.0146 42.6348H19.1807L19.8428 45.4941H19.8779L20.6279 42.6348H21.583L22.3301 45.5029H22.3682L23.0273 42.6348H24.1934L22.9248 47H21.9053L21.123 44.3545H21.0879L20.3057 47H19.2861ZM28.5229 47H27.3891L28.8656 42.6348H30.266L31.7396 47H30.6088L29.5834 43.7334H29.5482L28.5229 47ZM28.3764 45.2803H30.7465V46.083H28.3764V45.2803ZM35.6414 47V42.6348H37.4402C37.7684 42.6348 38.0516 42.6943 38.2898 42.8135C38.5281 42.9307 38.7117 43.0986 38.8406 43.3174C38.9715 43.5342 39.0369 43.791 39.0369 44.0879C39.0369 44.3906 38.9705 44.6475 38.8377 44.8584C38.7068 45.0693 38.5193 45.2305 38.2752 45.3418C38.0311 45.4512 37.743 45.5059 37.4109 45.5059H36.2713V44.6738H37.2146C37.3729 44.6738 37.5057 44.6533 37.6131 44.6123C37.7225 44.5713 37.8045 44.5078 37.8592 44.4219C37.9158 44.334 37.9441 44.2227 37.9441 44.0879C37.9441 43.9531 37.9158 43.8418 37.8592 43.7539C37.8045 43.6641 37.7225 43.5977 37.6131 43.5547C37.5057 43.5098 37.3719 43.4873 37.2117 43.4873H36.6932V47H35.6414ZM38.032 47L36.9686 45.0049H38.0965L39.1863 47H38.032ZM43.05 47V42.6348H44.8488C45.177 42.6348 45.4602 42.6943 45.6984 42.8135C45.9367 42.9307 46.1203 43.0986 46.2492 43.3174C46.3801 43.5342 46.4455 43.791 46.4455 44.0879C46.4455 44.3906 46.3791 44.6475 46.2463 44.8584C46.1154 45.0693 45.9279 45.2305 45.6838 45.3418C45.4396 45.4512 45.1516 45.5059 44.8195 45.5059H43.6799V44.6738H44.6232C44.7814 44.6738 44.9143 44.6533 45.0217 44.6123C45.1311 44.5713 45.2131 44.5078 45.2678 44.4219C45.3244 44.334 45.3527 44.2227 45.3527 44.0879C45.3527 43.9531 45.3244 43.8418 45.2678 43.7539C45.2131 43.6641 45.1311 43.5977 45.0217 43.5547C44.9143 43.5098 44.7805 43.4873 44.6203 43.4873H44.1018V47H43.05ZM45.4406 47L44.3771 45.0049H45.5051L46.5949 47H45.4406ZM51.399 47H50.2652L51.7418 42.6348H53.1422L54.6158 47H53.485L52.4596 43.7334H52.4244L51.399 47ZM51.2525 45.2803H53.6227V46.083H51.2525V45.2803ZM62.2295 42.6348V47H61.3389L59.6016 44.4805H59.5693V47H58.5176V42.6348H59.4258L61.1426 45.1484H61.1777V42.6348H62.2295ZM66.184 43.4932V42.6348H69.8695V43.4932H68.5453V47H67.5082V43.4932H66.184ZM73.6248 42.6348H74.8055L75.7254 44.4629H75.7664L76.6922 42.6348H77.867L76.2703 45.5439V47H75.2244V45.5439L73.6248 42.6348Z" fill="#F55252"/>
<path d="M75.043 61.2421C75.2552 61.0951 75.4891 61.019 75.7503 61.0026C76.0115 60.9863 76.2726 61.0462 76.5392 61.1659L76.2726 61.7317C76.1094 61.6556 75.9462 61.6175 75.7884 61.6229C75.6306 61.6229 75.4946 61.6665 75.3694 61.7481C75.2443 61.8297 75.1518 61.9385 75.081 62.08C75.0157 62.216 74.9885 62.3466 74.9994 62.4826C75.0049 62.6132 75.0484 62.7383 75.1246 62.8417C75.2007 62.9505 75.3041 63.0321 75.4293 63.092C75.5925 63.1682 75.734 63.1899 75.8645 63.1627C75.9951 63.1355 76.1094 63.0757 76.2073 62.9886C76.3053 62.9016 76.425 62.7764 76.5719 62.6186C76.746 62.4064 76.9092 62.2432 77.0507 62.1289C77.1922 62.0147 77.3663 61.9385 77.5676 61.9059C77.7689 61.8732 78.0029 61.9167 78.2695 62.0419C78.4926 62.1453 78.6612 62.2922 78.7918 62.4772C78.917 62.6622 78.9877 62.8689 78.9986 63.0974C79.0095 63.326 78.9605 63.5545 78.8517 63.783C78.7374 64.0279 78.5796 64.2183 78.3837 64.3489C78.1879 64.4849 77.9702 64.5556 77.7308 64.5665C77.4914 64.5774 77.252 64.5284 77.0126 64.4142L77.2792 63.8483C77.4914 63.9462 77.6982 63.9626 77.8941 63.9027C78.0899 63.8429 78.2314 63.7177 78.3239 63.5218C78.3783 63.4021 78.4055 63.2824 78.4001 63.1627C78.4001 63.043 78.3565 62.9342 78.2912 62.8363C78.226 62.7383 78.1335 62.6622 78.0192 62.6077C77.8723 62.537 77.7417 62.5207 77.6166 62.5479C77.4914 62.5751 77.388 62.6295 77.2955 62.7166C77.203 62.8036 77.0888 62.9233 76.9528 63.0811C76.7732 63.2933 76.61 63.462 76.4631 63.5817C76.3216 63.7014 76.142 63.7776 75.9244 63.8102C75.7068 63.8429 75.451 63.7939 75.1572 63.6579C74.9233 63.549 74.7437 63.3967 74.6077 63.2008C74.4771 63.0049 74.4009 62.7873 74.39 62.5479C74.3791 62.3085 74.4281 62.0636 74.5424 61.8242C74.6566 61.574 74.8199 61.3781 75.0321 61.2366L75.043 61.2421Z" fill="white"/>
<path d="M77.6763 65.9759L76.1855 68.4135L75.6795 68.1034L76.2617 67.1512L72.8665 65.0781L73.1929 64.5449L76.5881 66.618L77.1703 65.6658L77.6763 65.9759Z" fill="white"/>
<path d="M75.3639 69.5885L74.5804 70.5843C74.4063 70.8019 74.2158 70.9651 73.9982 71.0685C73.7805 71.1719 73.5629 71.2154 73.3398 71.1936C73.1167 71.1719 72.9209 71.0903 72.7413 70.9488C72.54 70.791 72.404 70.606 72.3278 70.3938C72.2516 70.1816 72.2407 69.9531 72.2897 69.7191C72.3387 69.4852 72.4529 69.2621 72.6216 69.0444L72.8665 69.2838C72.6869 69.5124 72.491 69.6756 72.2843 69.779C72.0775 69.8769 71.8708 69.915 71.6586 69.8878C71.4464 69.8606 71.245 69.7681 71.0492 69.6158L70.1024 68.8758L70.4942 68.3752L71.3811 69.0716C71.5987 69.2403 71.8 69.3111 71.9959 69.2784C72.1918 69.2458 72.3768 69.1206 72.5509 68.8975L72.8991 68.4568L71.3756 67.2598L71.7619 66.7646L75.353 69.5885H75.3639ZM72.7794 69.6756C72.7522 69.8116 72.7631 69.9422 72.812 70.0619C72.861 70.1871 72.9426 70.2959 73.0623 70.3884C73.231 70.5244 73.416 70.5734 73.6173 70.5353C73.8132 70.4972 73.9873 70.3829 74.1397 70.1871L74.5096 69.7137L73.3453 68.7996L72.9753 69.273C72.8719 69.4035 72.8066 69.5341 72.7794 69.6756Z" fill="white"/>
<path d="M68.9273 70.312C69.183 70.2467 69.4442 70.2576 69.7053 70.3446C69.9665 70.4317 70.2114 70.5895 70.4344 70.8235L72.551 72.989L72.0994 73.4297L69.972 71.2533C69.8305 71.1118 69.6836 71.0084 69.5204 70.9486C69.3626 70.8887 69.2048 70.8779 69.0524 70.9105C68.9001 70.9432 68.7586 71.0248 68.6335 71.1445C68.443 71.3349 68.3505 71.5471 68.3669 71.792C68.3832 72.0368 68.4974 72.2653 68.7096 72.483L70.8371 74.6594L70.3855 75.1001L68.2689 72.9346C68.0458 72.706 67.888 72.4558 67.8064 72.1946C67.7248 71.9334 67.7194 71.6723 67.7901 71.4165C67.8608 71.1608 68.0077 70.9268 68.2199 70.7146C68.4321 70.5024 68.6716 70.3664 68.9273 70.3011V70.312Z" fill="white"/>
<path d="M65.6898 73.3537C66.0979 73.321 66.4896 73.3917 66.8596 73.5659C67.235 73.74 67.5506 74.012 67.8063 74.3711C68.0621 74.7248 68.209 75.1057 68.2579 75.5192C68.3069 75.9273 68.2471 76.319 68.0784 76.6944C67.9097 77.0644 67.654 77.3746 67.3058 77.6249C67.0228 77.8262 66.7181 77.9622 66.3917 78.0275C66.0652 78.0928 65.7496 78.0819 65.4449 77.9949C65.1402 77.9078 64.8736 77.75 64.6451 77.5269L65.1946 77.1297C65.3579 77.2603 65.5429 77.3474 65.7442 77.3963C65.9509 77.4453 66.1577 77.4453 66.3699 77.4018C66.5821 77.3583 66.778 77.2712 66.9575 77.1406C67.2078 76.9611 67.3928 76.738 67.5071 76.4659C67.6213 76.1939 67.6594 75.9109 67.6213 75.6062C67.5833 75.3015 67.469 75.0186 67.2786 74.752C67.0827 74.4799 66.8487 74.2732 66.5712 74.1372C66.2937 74.0011 66.0108 73.9413 65.717 73.9631C65.4232 73.9848 65.1511 74.0828 64.9008 74.2623C64.7213 74.3929 64.5744 74.5507 64.4655 74.7411C64.3567 74.9316 64.2914 75.1383 64.2805 75.3505C64.2697 75.5627 64.2969 75.7749 64.3839 75.9708L63.8235 76.3734C63.682 76.0742 63.6167 75.7586 63.6331 75.4321C63.6494 75.1057 63.731 74.801 63.8942 74.5072C64.0575 74.2133 64.2806 73.9685 64.5635 73.7672C64.9117 73.5169 65.2871 73.3754 65.6952 73.3428L65.6898 73.3537Z" fill="white"/>
<path d="M64.6778 79.2575L62.1695 80.6341L61.8811 80.1118L62.8605 79.5731L60.9507 76.0854L61.5002 75.7861L63.41 79.2738L64.3894 78.7352L64.6723 79.2575H64.6778Z" fill="white"/>
<path d="M58.5731 77.3366C58.8342 77.3801 59.0682 77.4889 59.275 77.6739C59.4817 77.8589 59.6449 78.0983 59.7592 78.3976L60.8529 81.2215L60.2598 81.45L59.1607 78.6152C59.09 78.4302 58.992 78.2779 58.8669 78.1582C58.7417 78.0385 58.6057 77.9677 58.4479 77.9405C58.2901 77.9133 58.1323 77.9296 57.9691 77.9949C57.7188 78.0929 57.5502 78.2561 57.4685 78.4846C57.3869 78.7131 57.4032 78.9743 57.5121 79.2573L58.6112 82.092L58.0235 82.3205L56.9299 79.4967C56.8156 79.1974 56.7666 78.909 56.7938 78.637C56.8211 78.3649 56.919 78.1201 57.0877 77.9133C57.2563 77.7066 57.4794 77.5488 57.7569 77.4399C58.0344 77.3311 58.3065 77.2985 58.5676 77.3366H58.5731Z" fill="white"/>
<path d="M56.2768 82.8592L55.0472 83.1585C54.7751 83.2238 54.5248 83.2292 54.2909 83.1803C54.0569 83.1259 53.861 83.0225 53.6978 82.8701C53.54 82.7178 53.4312 82.5273 53.3768 82.3097C53.3169 82.0649 53.3224 81.8363 53.3985 81.6187C53.4693 81.401 53.5998 81.2215 53.7848 81.0691C53.9698 80.9168 54.1929 80.808 54.4595 80.7427L54.5031 81.08C54.2201 81.1508 53.9644 81.1616 53.7413 81.1127C53.5182 81.0637 53.3332 80.9658 53.1863 80.8134C53.0394 80.6611 52.936 80.4652 52.8762 80.2258L52.5933 79.056L53.2081 78.9036L53.4747 80.0027C53.54 80.2693 53.6597 80.4489 53.8338 80.5414C54.0079 80.6339 54.231 80.6502 54.5085 80.5849L55.0526 80.4543L54.5956 78.5717L55.205 78.4248L56.2877 82.8647L56.2768 82.8592ZM54.1984 81.3303C54.095 81.4228 54.0188 81.5316 53.9807 81.6568C53.9426 81.7819 53.9426 81.9179 53.9807 82.0703C54.0297 82.2825 54.144 82.4348 54.3235 82.5273C54.5031 82.6198 54.7098 82.6362 54.9492 82.5818L55.5314 82.4403L55.1832 80.9984L54.601 81.1399C54.4378 81.178 54.3072 81.2433 54.2038 81.3358L54.1984 81.3303Z" fill="white"/>
<path d="M50.8574 83.9146L50.2589 83.9799L48.2185 79.6053L48.8986 79.5291L49.3339 80.5139L51.0206 80.3289L51.2383 79.2734L51.8966 79.2026L50.8574 83.9146ZM49.557 81.0907L50.4874 83.1202L50.9608 80.9329L49.557 81.0907Z" fill="white"/>
<path d="M46.6952 84.1653L46.7279 80.1879L45.0956 80.1771V79.584L47.3645 79.6003L47.3264 84.1708H46.6952V84.1653Z" fill="white"/>
<path d="M42.0593 83.9745L41.401 83.833L41.2595 81.1397C41.2486 80.7643 41.2432 80.4215 41.2595 80.1114C41.1289 80.3943 40.9711 80.7044 40.7916 81.0309L39.5456 83.4358L39.0341 83.327L38.8709 80.6718C38.8437 80.2964 38.8274 79.9536 38.8219 79.638C38.7131 79.9264 38.5716 80.242 38.4084 80.5793L37.2223 82.9462L36.5966 82.8156L38.6968 78.5879L39.3062 78.713L39.551 82.266L41.2105 79.1157L41.858 79.2517L42.0702 83.9691L42.0593 83.9745Z" fill="white"/>
<path d="M34.2787 81.9397L33.7183 81.7275L33.8978 76.9067L34.5399 77.1516L34.48 78.2235L36.0688 78.8274L36.7435 77.9895L37.3583 78.2235L34.2787 81.9397ZM34.4147 78.8329L34.3113 81.0637L35.7314 79.3334L34.4147 78.8329Z" fill="white"/>
<path d="M30.9979 80.5574L29.8825 79.9589C29.6376 79.8283 29.4472 79.665 29.3057 79.4692C29.1642 79.2733 29.0881 79.0665 29.0717 78.8435C29.0554 78.6204 29.099 78.4136 29.2078 78.2123C29.3275 77.9892 29.4853 77.8205 29.6811 77.7117C29.877 77.6029 30.1001 77.5485 30.3395 77.5594C30.5789 77.5703 30.8183 77.641 31.0632 77.7661L30.8673 78.0491C30.6116 77.913 30.4157 77.7498 30.2797 77.5648C30.1436 77.3798 30.0729 77.1785 30.0675 76.9663C30.062 76.7541 30.1164 76.5419 30.2307 76.3188L30.7966 75.2578L31.357 75.5571L30.8238 76.5528C30.6932 76.7922 30.6605 77.0098 30.7258 77.1948C30.7911 77.3798 30.9489 77.543 31.1992 77.6736L31.6943 77.9402L32.6084 76.2318L33.1634 76.5256L31.0088 80.5574H30.9979ZM30.4592 78.0273C30.3232 78.0273 30.1926 78.0545 30.0838 78.1252C29.9695 78.1905 29.877 78.2939 29.8063 78.4299C29.7029 78.6204 29.6866 78.8108 29.7573 79.0012C29.828 79.1917 29.9695 79.3386 30.1926 79.4583L30.7204 79.7412L31.4223 78.4354L30.8945 78.1524C30.7476 78.0763 30.6061 78.0327 30.4646 78.0327L30.4592 78.0273Z" fill="white"/>
<path d="M27.1401 78.3594L26.1063 77.6249C25.8778 77.4616 25.7091 77.2766 25.5949 77.0644C25.4806 76.8522 25.4262 76.6346 25.4371 76.4115C25.448 76.1884 25.5187 75.9871 25.6493 75.8021C25.7962 75.5954 25.9703 75.4485 26.1825 75.3668C26.3947 75.2798 26.6178 75.258 26.8518 75.2961C27.0857 75.3342 27.3197 75.4321 27.5428 75.5954L27.3142 75.8511C27.0748 75.6824 26.9007 75.4974 26.7919 75.2961C26.6831 75.0948 26.6341 74.888 26.6559 74.6758C26.6776 74.4636 26.7538 74.2569 26.9007 74.0556L27.5972 73.0762L28.1141 73.4407L27.4612 74.3603C27.3034 74.5833 27.2435 74.7901 27.287 74.986C27.3306 75.1764 27.4666 75.356 27.6951 75.5192L28.1522 75.8457L29.273 74.2623L29.7845 74.6269L27.1401 78.354V78.3594ZM26.9279 75.7912C26.7919 75.7695 26.6613 75.7912 26.5416 75.8402C26.4219 75.8946 26.3185 75.9817 26.2315 76.1068C26.1063 76.2864 26.0628 76.4714 26.1118 76.6672C26.1553 76.8631 26.2805 77.0318 26.4818 77.1733L26.9715 77.5215L27.8311 76.3136L27.3415 75.9654C27.2054 75.8674 27.0694 75.813 26.9334 75.7912H26.9279Z" fill="white"/>
<path d="M22.7872 74.9642L22.3465 74.5562L24.3053 70.1489L24.8113 70.6114L24.3597 71.5854L25.6057 72.7334L26.547 72.2056L27.0312 72.6518L22.7927 74.9588L22.7872 74.9642ZM24.0659 72.1349L23.1409 74.1698L25.0997 73.0925L24.0604 72.1349H24.0659Z" fill="white"/>
<path d="M21.3346 68.4568C21.0898 68.6908 20.8231 68.9302 20.5293 69.175L18.7447 70.6495L18.3475 70.1707L21.8678 67.2598L22.2269 67.695L21.1442 70.3394C20.9918 70.6822 20.8395 71.0086 20.6762 71.3133C20.9265 71.0794 21.1986 70.84 21.4924 70.5951L23.3532 69.0553L23.745 69.5287L20.2246 72.4396L19.8274 71.9608L20.8721 69.4307C21.0245 69.0879 21.1768 68.7615 21.3346 68.4568Z" fill="white"/>
<path d="M17.4932 68.9899L15.9534 66.5796L16.4539 66.2586L17.0525 67.1998L20.4041 65.0615L20.7415 65.5893L17.3898 67.7276L17.9883 68.6689L17.4877 68.9899H17.4932Z" fill="white"/>
<path d="M15.1481 65.0836L16.4975 63.3425H14.2993L14.0001 62.7331L16.9872 62.7548L18.6902 61.9224L18.9677 62.4937L17.2647 63.3261L15.4474 65.7093L15.1427 65.089L15.1481 65.0836Z" fill="white"/>
</svg>
