<svg xmlns="http://www.w3.org/2000/svg" width="1440" height="30" viewBox="0 0 1440 30" fill="none">
<line x1="5.5" y1="10" x2="5.5" y2="30" stroke="white"/>
<line x1="15.5" y1="20" x2="15.5" y2="30" stroke="white"/>
<line x1="25.5" y1="10" x2="25.5" y2="30" stroke="white"/>
<line x1="35.5" y1="20" x2="35.5" y2="30" stroke="white"/>
<line x1="44.5" y1="30" x2="44.5" y2="2.18557e-08" stroke="white"/>
<line x1="55.5" y1="20" x2="55.5" y2="30" stroke="white"/>
<line x1="65.5" y1="10" x2="65.5" y2="30" stroke="white"/>
<line x1="75.5" y1="20" x2="75.5" y2="30" stroke="white"/>
<line x1="85.5" y1="10" x2="85.5" y2="30" stroke="white"/>
<line x1="95.5" y1="20" x2="95.5" y2="30" stroke="white"/>
<line x1="105.5" y1="10" x2="105.5" y2="30" stroke="white"/>
<line x1="115.5" y1="20" x2="115.5" y2="30" stroke="white"/>
<line x1="124.5" y1="30" x2="124.5" y2="2.18557e-08" stroke="white"/>
<line x1="135.5" y1="20" x2="135.5" y2="30" stroke="white"/>
<line x1="145.5" y1="10" x2="145.5" y2="30" stroke="white"/>
<line x1="155.5" y1="20" x2="155.5" y2="30" stroke="white"/>
<line x1="165.5" y1="10" x2="165.5" y2="30" stroke="white"/>
<line x1="175.5" y1="20" x2="175.5" y2="30" stroke="white"/>
<line x1="185.5" y1="10" x2="185.5" y2="30" stroke="white"/>
<line x1="195.5" y1="20" x2="195.5" y2="30" stroke="white"/>
<line x1="204.5" y1="30" x2="204.5" y2="2.18557e-08" stroke="white"/>
<line x1="215.5" y1="20" x2="215.5" y2="30" stroke="white"/>
<line x1="225.5" y1="10" x2="225.5" y2="30" stroke="white"/>
<line x1="235.5" y1="20" x2="235.5" y2="30" stroke="white"/>
<line x1="245.5" y1="10" x2="245.5" y2="30" stroke="white"/>
<line x1="255.5" y1="20" x2="255.5" y2="30" stroke="white"/>
<line x1="265.5" y1="10" x2="265.5" y2="30" stroke="white"/>
<line x1="275.5" y1="20" x2="275.5" y2="30" stroke="white"/>
<line x1="284.5" y1="30" x2="284.5" y2="2.18557e-08" stroke="white"/>
<line x1="295.5" y1="20" x2="295.5" y2="30" stroke="white"/>
<line x1="305.5" y1="10" x2="305.5" y2="30" stroke="white"/>
<line x1="315.5" y1="20" x2="315.5" y2="30" stroke="white"/>
<line x1="325.5" y1="10" x2="325.5" y2="30" stroke="white"/>
<line x1="335.5" y1="20" x2="335.5" y2="30" stroke="white"/>
<line x1="345.5" y1="10" x2="345.5" y2="30" stroke="white"/>
<line x1="355.5" y1="20" x2="355.5" y2="30" stroke="white"/>
<line x1="364.5" y1="30" x2="364.5" y2="2.18557e-08" stroke="white"/>
<line x1="375.5" y1="20" x2="375.5" y2="30" stroke="white"/>
<line x1="385.5" y1="10" x2="385.5" y2="30" stroke="white"/>
<line x1="395.5" y1="20" x2="395.5" y2="30" stroke="white"/>
<line x1="405.5" y1="10" x2="405.5" y2="30" stroke="white"/>
<line x1="415.5" y1="20" x2="415.5" y2="30" stroke="white"/>
<line x1="425.5" y1="10" x2="425.5" y2="30" stroke="white"/>
<line x1="435.5" y1="20" x2="435.5" y2="30" stroke="white"/>
<line x1="444.5" y1="30" x2="444.5" y2="2.18557e-08" stroke="white"/>
<line x1="455.5" y1="20" x2="455.5" y2="30" stroke="white"/>
<line x1="465.5" y1="10" x2="465.5" y2="30" stroke="white"/>
<line x1="475.5" y1="20" x2="475.5" y2="30" stroke="white"/>
<line x1="485.5" y1="10" x2="485.5" y2="30" stroke="white"/>
<line x1="495.5" y1="20" x2="495.5" y2="30" stroke="white"/>
<line x1="505.5" y1="10" x2="505.5" y2="30" stroke="white"/>
<line x1="515.5" y1="20" x2="515.5" y2="30" stroke="white"/>
<line x1="524.5" y1="30" x2="524.5" y2="2.18557e-08" stroke="white"/>
<line x1="535.5" y1="20" x2="535.5" y2="30" stroke="white"/>
<line x1="545.5" y1="10" x2="545.5" y2="30" stroke="white"/>
<line x1="555.5" y1="20" x2="555.5" y2="30" stroke="white"/>
<line x1="565.5" y1="10" x2="565.5" y2="30" stroke="white"/>
<line x1="575.5" y1="20" x2="575.5" y2="30" stroke="white"/>
<line x1="585.5" y1="10" x2="585.5" y2="30" stroke="white"/>
<line x1="595.5" y1="20" x2="595.5" y2="30" stroke="white"/>
<line x1="604.5" y1="30" x2="604.5" y2="2.18557e-08" stroke="white"/>
<line x1="615.5" y1="20" x2="615.5" y2="30" stroke="white"/>
<line x1="625.5" y1="10" x2="625.5" y2="30" stroke="white"/>
<line x1="635.5" y1="20" x2="635.5" y2="30" stroke="white"/>
<line x1="645.5" y1="10" x2="645.5" y2="30" stroke="white"/>
<line x1="655.5" y1="20" x2="655.5" y2="30" stroke="white"/>
<line x1="665.5" y1="10" x2="665.5" y2="30" stroke="white"/>
<line x1="675.5" y1="20" x2="675.5" y2="30" stroke="white"/>
<line x1="684.5" y1="30" x2="684.5" y2="2.18557e-08" stroke="white"/>
<line x1="695.5" y1="20" x2="695.5" y2="30" stroke="white"/>
<line x1="705.5" y1="10" x2="705.5" y2="30" stroke="white"/>
<line x1="715.5" y1="20" x2="715.5" y2="30" stroke="white"/>
<line x1="725.5" y1="10" x2="725.5" y2="30" stroke="white"/>
<line x1="735.5" y1="20" x2="735.5" y2="30" stroke="white"/>
<line x1="745.5" y1="10" x2="745.5" y2="30" stroke="white"/>
<line x1="755.5" y1="20" x2="755.5" y2="30" stroke="white"/>
<line x1="764.5" y1="30" x2="764.5" y2="2.18557e-08" stroke="white"/>
<line x1="775.5" y1="20" x2="775.5" y2="30" stroke="white"/>
<line x1="785.5" y1="10" x2="785.5" y2="30" stroke="white"/>
<line x1="795.5" y1="20" x2="795.5" y2="30" stroke="white"/>
<line x1="805.5" y1="10" x2="805.5" y2="30" stroke="white"/>
<line x1="815.5" y1="20" x2="815.5" y2="30" stroke="white"/>
<line x1="825.5" y1="10" x2="825.5" y2="30" stroke="white"/>
<line x1="835.5" y1="20" x2="835.5" y2="30" stroke="white"/>
<line x1="844.5" y1="30" x2="844.5" y2="2.18557e-08" stroke="white"/>
<line x1="855.5" y1="20" x2="855.5" y2="30" stroke="white"/>
<line x1="865.5" y1="10" x2="865.5" y2="30" stroke="white"/>
<line x1="875.5" y1="20" x2="875.5" y2="30" stroke="white"/>
<line x1="885.5" y1="10" x2="885.5" y2="30" stroke="white"/>
<line x1="895.5" y1="20" x2="895.5" y2="30" stroke="white"/>
<line x1="905.5" y1="10" x2="905.5" y2="30" stroke="white"/>
<line x1="915.5" y1="20" x2="915.5" y2="30" stroke="white"/>
<line x1="924.5" y1="30" x2="924.5" y2="2.18557e-08" stroke="white"/>
<line x1="935.5" y1="20" x2="935.5" y2="30" stroke="white"/>
<line x1="945.5" y1="10" x2="945.5" y2="30" stroke="white"/>
<line x1="955.5" y1="20" x2="955.5" y2="30" stroke="white"/>
<line x1="965.5" y1="10" x2="965.5" y2="30" stroke="white"/>
<line x1="975.5" y1="20" x2="975.5" y2="30" stroke="white"/>
<line x1="985.5" y1="10" x2="985.5" y2="30" stroke="white"/>
<line x1="995.5" y1="20" x2="995.5" y2="30" stroke="white"/>
<line x1="1004.5" y1="30" x2="1004.5" y2="2.18557e-08" stroke="white"/>
<line x1="1015.5" y1="20" x2="1015.5" y2="30" stroke="white"/>
<line x1="1025.5" y1="10" x2="1025.5" y2="30" stroke="white"/>
<line x1="1035.5" y1="20" x2="1035.5" y2="30" stroke="white"/>
<line x1="1045.5" y1="10" x2="1045.5" y2="30" stroke="white"/>
<line x1="1055.5" y1="20" x2="1055.5" y2="30" stroke="white"/>
<line x1="1065.5" y1="10" x2="1065.5" y2="30" stroke="white"/>
<line x1="1075.5" y1="20" x2="1075.5" y2="30" stroke="white"/>
<line x1="1084.5" y1="30" x2="1084.5" y2="2.18557e-08" stroke="white"/>
<line x1="1095.5" y1="20" x2="1095.5" y2="30" stroke="white"/>
<line x1="1105.5" y1="10" x2="1105.5" y2="30" stroke="white"/>
<line x1="1115.5" y1="20" x2="1115.5" y2="30" stroke="white"/>
<line x1="1125.5" y1="10" x2="1125.5" y2="30" stroke="white"/>
<line x1="1135.5" y1="20" x2="1135.5" y2="30" stroke="white"/>
<line x1="1145.5" y1="10" x2="1145.5" y2="30" stroke="white"/>
<line x1="1155.5" y1="20" x2="1155.5" y2="30" stroke="white"/>
<line x1="1164.5" y1="30" x2="1164.5" y2="2.18557e-08" stroke="white"/>
<line x1="1175.5" y1="20" x2="1175.5" y2="30" stroke="white"/>
<line x1="1185.5" y1="10" x2="1185.5" y2="30" stroke="white"/>
<line x1="1195.5" y1="20" x2="1195.5" y2="30" stroke="white"/>
<line x1="1205.5" y1="10" x2="1205.5" y2="30" stroke="white"/>
<line x1="1215.5" y1="20" x2="1215.5" y2="30" stroke="white"/>
<line x1="1225.5" y1="10" x2="1225.5" y2="30" stroke="white"/>
<line x1="1235.5" y1="20" x2="1235.5" y2="30" stroke="white"/>
<line x1="1244.5" y1="30" x2="1244.5" y2="2.18557e-08" stroke="white"/>
<line x1="1255.5" y1="20" x2="1255.5" y2="30" stroke="white"/>
<line x1="1265.5" y1="10" x2="1265.5" y2="30" stroke="white"/>
<line x1="1275.5" y1="20" x2="1275.5" y2="30" stroke="white"/>
<line x1="1285.5" y1="10" x2="1285.5" y2="30" stroke="white"/>
<line x1="1295.5" y1="20" x2="1295.5" y2="30" stroke="white"/>
<line x1="1305.5" y1="10" x2="1305.5" y2="30" stroke="white"/>
<line x1="1315.5" y1="20" x2="1315.5" y2="30" stroke="white"/>
<line x1="1324.5" y1="30" x2="1324.5" y2="2.18557e-08" stroke="white"/>
<line x1="1335.5" y1="20" x2="1335.5" y2="30" stroke="white"/>
<line x1="1345.5" y1="10" x2="1345.5" y2="30" stroke="white"/>
<line x1="1355.5" y1="20" x2="1355.5" y2="30" stroke="white"/>
<line x1="1365.5" y1="10" x2="1365.5" y2="30" stroke="white"/>
<line x1="1375.5" y1="20" x2="1375.5" y2="30" stroke="white"/>
<line x1="1385.5" y1="10" x2="1385.5" y2="30" stroke="white"/>
<line x1="1395.5" y1="20" x2="1395.5" y2="30" stroke="white"/>
<line x1="1404.5" y1="30" x2="1404.5" y2="2.18557e-08" stroke="white"/>
<line x1="1415.5" y1="20" x2="1415.5" y2="30" stroke="white"/>
<line x1="1425.5" y1="10" x2="1425.5" y2="30" stroke="white"/>
<line x1="1435.5" y1="20" x2="1435.5" y2="30" stroke="white"/>
</svg>