<svg width="67" height="56" viewBox="0 0 67 56" fill="none" xmlns="http://www.w3.org/2000/svg">
<path d="M0.000976562 55.5661H66.7985V13.3004L50.9365 0H0.000976562V55.5661Z" fill="#F55252"/>
<path fill-rule="evenodd" clip-rule="evenodd" d="M9 9.28918V48.188H29.5984C32.1069 48.188 34.3098 47.7238 36.2073 46.7953C38.1368 45.8669 39.6323 44.5863 40.6936 42.9535C41.787 41.2887 42.3337 39.3517 42.3337 37.1427C42.3337 35.3498 41.9639 33.797 41.2242 32.4844C40.5167 31.1718 39.5519 30.0833 38.3298 29.2188C37.1399 28.3544 35.8213 27.7621 34.3741 27.442V27.2499C36.1429 26.6736 37.5901 25.6971 38.7157 24.3205C39.8413 22.9118 40.4041 21.1989 40.4041 19.182C40.4041 17.197 39.9056 15.4682 38.9087 13.9955C37.9439 12.4907 36.5932 11.3382 34.8565 10.5378C33.1199 9.70539 31.0778 9.28918 28.7301 9.28918H9ZM28.2477 41.8489H16.3807V30.9477H28.2959C30.4185 30.9477 32.0586 31.4119 33.2164 32.3403C34.3741 33.2368 34.953 34.5654 34.953 36.3263C34.953 38.1191 34.3741 39.4958 33.2164 40.4563C32.0586 41.3847 30.4024 41.8489 28.2477 41.8489ZM27.717 25.0888H16.3807V15.6283H27.717C29.4215 15.6283 30.724 16.0284 31.6245 16.8288C32.5571 17.6292 33.0234 18.8138 33.0234 20.3826C33.0234 21.8873 32.5571 23.0558 31.6245 23.8883C30.724 24.6886 29.4215 25.0888 27.717 25.0888ZM59.8003 39.8677H44.4423V48.1003H59.8003V39.8677Z" fill="white"/>
<rect x="53.793" y="31.6307" width="9.45805" height="8.27579" fill="black"/>
</svg>
