<svg width="167" height="32" viewBox="0 0 167 32" fill="none" xmlns="http://www.w3.org/2000/svg">
<path fill-rule="evenodd" clip-rule="evenodd" d="M55.0299 4.16187H49.1108V7.99185H55.0299V4.16187ZM101.339 4.16187H95.4194V7.99185H101.339V4.16187Z" fill="white"/>
<path fill-rule="evenodd" clip-rule="evenodd" d="M84.4372 31.5453V0.0460205H90.0246V31.5453H84.4372ZM146.099 31.7106C143.674 31.7106 141.575 31.2356 139.8 30.2856C138.025 29.3106 136.65 27.9482 135.675 26.1982C134.725 24.4233 134.25 22.3358 134.25 19.9359C134.25 17.5359 134.725 15.4735 135.675 13.7485C136.625 11.9986 137.975 10.6611 139.725 9.73612C141.475 8.78615 143.524 8.31116 145.874 8.31116C148.174 8.31116 150.149 8.76115 151.799 9.66112C153.449 10.5361 154.724 11.8111 155.624 13.486C156.524 15.136 156.974 17.0984 156.974 19.3734V21.3233H139.65C139.85 23.2233 140.5 24.6858 141.6 25.7107C142.724 26.7107 144.212 27.2107 146.062 27.2107C147.437 27.2107 148.549 26.9607 149.399 26.4607C150.274 25.9357 150.887 25.1607 151.237 24.1358H156.862C156.337 26.5107 155.124 28.3732 153.224 29.7231C151.349 31.0481 148.974 31.7106 146.099 31.7106ZM139.762 17.5359H151.612C151.387 15.986 150.787 14.811 149.812 14.011C148.837 13.186 147.524 12.7735 145.874 12.7735C144.249 12.7735 142.912 13.186 141.862 14.011C140.812 14.836 140.112 16.011 139.762 17.5359ZM107.997 31.6823V14.7702H105.222V9.18287H110.96V12.7828H112.535C113.385 11.5078 114.472 10.5203 115.797 9.82036C117.122 9.12038 118.747 8.77039 120.672 8.77039C123.747 8.77039 126.122 9.62036 127.797 11.3203C129.497 13.0203 130.347 15.2827 130.347 18.1077V31.6823H124.759V19.1576C124.759 17.3827 124.284 16.0327 123.334 15.1077C122.409 14.1828 121.022 13.7203 119.172 13.7203C117.372 13.7203 115.985 14.1828 115.01 15.1077C114.06 16.0327 113.585 17.3827 113.585 19.1576V31.6823H107.997ZM95.5993 9.28003V31.7795H101.187V9.28003H95.5993ZM66.4155 20.2167L57.6032 31.729H63.7906L69.6404 24.0416L75.4528 31.729H81.7151L72.9028 20.2167L81.2651 9.22949H75.1153L69.6779 16.3168L64.2781 9.22949H58.0532L66.4155 20.2167ZM49.3239 31.7795V9.28003H54.9113V31.7795H49.3239ZM31.9094 15.0419V31.954H37.4218V20.4793C37.4218 18.5293 37.9217 16.9669 38.9217 15.7919C39.9467 14.6169 41.4717 14.0294 43.4966 14.0294H45.6341V9.22954H43.7591C42.0841 9.22954 40.5967 9.61703 39.2967 10.392C37.9967 11.167 37.0343 12.3045 36.4093 13.8044H34.8343V9.45453H29.1345V15.0419H31.9094ZM0.0172729 31.7978V1.42358H15.3544C17.1794 1.42358 18.7668 1.74857 20.1168 2.39855C21.4668 3.02354 22.5167 3.92352 23.2667 5.09849C24.0417 6.24846 24.4292 7.59843 24.4292 9.14839C24.4292 10.7234 23.9917 12.0608 23.1167 13.1608C22.2417 14.2358 21.1168 14.9983 19.7418 15.4482V15.5982C20.8668 15.8482 21.8917 16.3107 22.8167 16.9857C23.7667 17.6607 24.5167 18.5107 25.0667 19.5356C25.6417 20.5606 25.9292 21.7731 25.9292 23.1731C25.9292 24.898 25.5042 26.4105 24.6542 27.7104C23.8292 28.9854 22.6667 29.9854 21.1668 30.7104C19.6918 31.4354 17.9793 31.7978 16.0294 31.7978H0.0172729ZM5.75464 26.848H14.9794C16.6544 26.848 17.9418 26.4855 18.8418 25.7605C19.7418 25.0105 20.1918 23.9355 20.1918 22.5356C20.1918 21.1606 19.7418 20.1231 18.8418 19.4231C17.9418 18.6982 16.6669 18.3357 15.0169 18.3357H5.75464V26.848ZM5.75464 13.7608H14.5669C15.8919 13.7608 16.9044 13.4483 17.6043 12.8233C18.3293 12.1733 18.6918 11.2608 18.6918 10.0859C18.6918 8.8609 18.3293 7.93592 17.6043 7.31094C16.9044 6.68595 15.8919 6.37346 14.5669 6.37346H5.75464V13.7608ZM166.983 26.8863H160.019V31.7609H166.983V26.8863Z" fill="white"/>
</svg>
