<svg width="48" height="48" viewBox="0 0 48 48" fill="none" xmlns="http://www.w3.org/2000/svg">
<path d="M32 44H36C37.0609 44 38.0783 43.5786 38.8284 42.8284C39.5786 42.0783 40 41.0609 40 40V14L30 4H12C10.9391 4 9.92172 4.42143 9.17157 5.17157C8.42143 5.92172 8 6.93913 8 8V14" stroke="#F55254" stroke-width="3" stroke-linecap="round" stroke-linejoin="round"/>
<path d="M28 4V12C28 13.0609 28.4214 14.0783 29.1716 14.8284C29.9217 15.5786 30.9391 16 32 16H40" stroke="#F55254" stroke-width="3" stroke-linecap="round" stroke-linejoin="round"/>
<path d="M16 44C22.6274 44 28 38.6274 28 32C28 25.3726 22.6274 20 16 20C9.37258 20 4 25.3726 4 32C4 38.6274 9.37258 44 16 44Z" stroke="#F55254" stroke-width="3" stroke-linecap="round" stroke-linejoin="round"/>
<path d="M19 35L16 32.5V28" stroke="#F55254" stroke-width="3" stroke-linecap="round" stroke-linejoin="round"/>
</svg>
