<svg width="48" height="48" viewBox="0 0 48 48" fill="none" xmlns="http://www.w3.org/2000/svg">
<path d="M28 4V12C28 13.0609 28.4214 14.0783 29.1716 14.8284C29.9217 15.5786 30.9391 16 32 16H40" stroke="#F55254" stroke-width="3" stroke-linecap="round" stroke-linejoin="round"/>
<path d="M30 36C30 34.4087 29.3679 32.8826 28.2426 31.7574C27.1174 30.6321 25.5913 30 24 30C22.4087 30 20.8826 30.6321 19.7574 31.7574C18.6321 32.8826 18 34.4087 18 36" stroke="#F55254" stroke-width="3" stroke-linecap="round" stroke-linejoin="round"/>
<path d="M30 4H12C10.9391 4 9.92172 4.42143 9.17157 5.17157C8.42143 5.92172 8 6.93913 8 8V40C8 41.0609 8.42143 42.0783 9.17157 42.8284C9.92172 43.5786 10.9391 44 12 44H36C37.0609 44 38.0783 43.5786 38.8284 42.8284C39.5786 42.0783 40 41.0609 40 40V14L30 4Z" stroke="#F55254" stroke-width="3" stroke-linecap="round" stroke-linejoin="round"/>
<path d="M24 30C26.2091 30 28 28.2091 28 26C28 23.7909 26.2091 22 24 22C21.7909 22 20 23.7909 20 26C20 28.2091 21.7909 30 24 30Z" stroke="#F55254" stroke-width="3" stroke-linecap="round" stroke-linejoin="round"/>
</svg>
