<svg width="348" height="92" viewBox="0 0 348 92" fill="none" xmlns="http://www.w3.org/2000/svg">
<rect width="348" height="92" fill="white" fill-opacity="0.1"/>
<path d="M45.333 53.3333H47.9997C48.7069 53.3333 49.3852 53.0523 49.8853 52.5522C50.3854 52.0521 50.6663 51.3739 50.6663 50.6666V33.3333L43.9997 26.6666H31.9997C31.2924 26.6666 30.6142 26.9476 30.1141 27.4477C29.614 27.9478 29.333 28.626 29.333 29.3333V33.3333" stroke="#F55254" stroke-width="2" stroke-linecap="round" stroke-linejoin="round"/>
<path d="M42.667 26.6666V32C42.667 32.7072 42.9479 33.3855 43.448 33.8856C43.9481 34.3857 44.6264 34.6666 45.3337 34.6666H50.667" stroke="#F55254" stroke-width="2" stroke-linecap="round" stroke-linejoin="round"/>
<path d="M34.667 53.3334C39.0853 53.3334 42.667 49.7517 42.667 45.3334C42.667 40.9151 39.0853 37.3334 34.667 37.3334C30.2487 37.3334 26.667 40.9151 26.667 45.3334C26.667 49.7517 30.2487 53.3334 34.667 53.3334Z" stroke="#F55254" stroke-width="2" stroke-linecap="round" stroke-linejoin="round"/>
<path d="M36.667 47.3333L34.667 45.6666V42.6666" stroke="#F55254" stroke-width="2" stroke-linecap="round" stroke-linejoin="round"/>
<path d="M81.216 29.576H86.672C87.9307 29.576 88.8747 29.848 89.504 30.392C90.1333 30.936 90.448 31.6933 90.448 32.664C90.448 33.208 90.368 33.6613 90.208 34.024C90.048 34.376 89.8613 34.664 89.648 34.888C89.4347 35.1013 89.2213 35.256 89.008 35.352C88.8053 35.448 88.656 35.512 88.56 35.544V35.576C88.7307 35.5973 88.912 35.6507 89.104 35.736C89.3067 35.8213 89.4933 35.96 89.664 36.152C89.8347 36.3333 89.9733 36.5733 90.08 36.872C90.1973 37.1707 90.256 37.544 90.256 37.992C90.256 38.664 90.304 39.2773 90.4 39.832C90.5067 40.376 90.6667 40.7653 90.88 41H88.736C88.5867 40.7547 88.496 40.4827 88.464 40.184C88.4427 39.8853 88.432 39.5973 88.432 39.32C88.432 38.7973 88.4 38.3493 88.336 37.976C88.272 37.592 88.1547 37.2773 87.984 37.032C87.8133 36.776 87.5787 36.5893 87.28 36.472C86.992 36.3547 86.6187 36.296 86.16 36.296H83.216V41H81.216V29.576ZM83.216 34.776H86.496C87.136 34.776 87.6213 34.6267 87.952 34.328C88.2827 34.0187 88.448 33.56 88.448 32.952C88.448 32.5893 88.3947 32.296 88.288 32.072C88.1813 31.8373 88.032 31.656 87.84 31.528C87.6587 31.4 87.4453 31.3147 87.2 31.272C86.9653 31.2293 86.72 31.208 86.464 31.208H83.216V34.776ZM97.9056 36.136C97.8843 35.848 97.8203 35.5707 97.7136 35.304C97.6176 35.0373 97.479 34.808 97.2976 34.616C97.127 34.4133 96.9136 34.2533 96.6576 34.136C96.4123 34.008 96.135 33.944 95.8256 33.944C95.5056 33.944 95.2123 34.0027 94.9456 34.12C94.6896 34.2267 94.4656 34.3813 94.2736 34.584C94.0923 34.776 93.943 35.0053 93.8256 35.272C93.719 35.5387 93.6603 35.8267 93.6496 36.136H97.9056ZM93.6496 37.336C93.6496 37.656 93.6923 37.9653 93.7776 38.264C93.8736 38.5627 94.0123 38.824 94.1936 39.048C94.375 39.272 94.6043 39.4533 94.8816 39.592C95.159 39.72 95.4896 39.784 95.8736 39.784C96.407 39.784 96.8336 39.672 97.1536 39.448C97.4843 39.2133 97.7296 38.8667 97.8896 38.408H99.6176C99.5216 38.856 99.3563 39.256 99.1216 39.608C98.887 39.96 98.6043 40.2587 98.2736 40.504C97.943 40.7387 97.5696 40.9147 97.1536 41.032C96.7483 41.16 96.3216 41.224 95.8736 41.224C95.223 41.224 94.647 41.1173 94.1456 40.904C93.6443 40.6907 93.2176 40.392 92.8656 40.008C92.5243 39.624 92.263 39.1653 92.0816 38.632C91.911 38.0987 91.8256 37.512 91.8256 36.872C91.8256 36.2853 91.9163 35.7307 92.0976 35.208C92.2896 34.6747 92.5563 34.2107 92.8976 33.816C93.2496 33.4107 93.671 33.0907 94.1616 32.856C94.6523 32.6213 95.207 32.504 95.8256 32.504C96.4763 32.504 97.0576 32.6427 97.5696 32.92C98.0923 33.1867 98.5243 33.544 98.8656 33.992C99.207 34.44 99.4523 34.9573 99.6016 35.544C99.7616 36.12 99.8043 36.7173 99.7296 37.336H93.6496ZM108.044 39.16C108.044 39.384 108.071 39.544 108.124 39.64C108.188 39.736 108.306 39.784 108.476 39.784C108.53 39.784 108.594 39.784 108.668 39.784C108.743 39.784 108.828 39.7733 108.924 39.752V41.016C108.86 41.0373 108.775 41.0587 108.668 41.08C108.572 41.112 108.471 41.1387 108.364 41.16C108.258 41.1813 108.151 41.1973 108.044 41.208C107.938 41.2187 107.847 41.224 107.772 41.224C107.399 41.224 107.09 41.1493 106.844 41C106.599 40.8507 106.439 40.5893 106.364 40.216C106.002 40.568 105.554 40.824 105.02 40.984C104.498 41.144 103.991 41.224 103.5 41.224C103.127 41.224 102.77 41.1707 102.428 41.064C102.087 40.968 101.783 40.824 101.516 40.632C101.26 40.4293 101.052 40.1787 100.892 39.88C100.743 39.5707 100.668 39.2133 100.668 38.808C100.668 38.296 100.759 37.88 100.94 37.56C101.132 37.24 101.378 36.9893 101.676 36.808C101.986 36.6267 102.327 36.4987 102.7 36.424C103.084 36.3387 103.468 36.2747 103.852 36.232C104.183 36.168 104.498 36.1253 104.796 36.104C105.095 36.072 105.356 36.024 105.58 35.96C105.815 35.896 105.996 35.8 106.124 35.672C106.263 35.5333 106.332 35.3307 106.332 35.064C106.332 34.8293 106.274 34.6373 106.156 34.488C106.05 34.3387 105.911 34.2267 105.74 34.152C105.58 34.0667 105.399 34.0133 105.196 33.992C104.994 33.96 104.802 33.944 104.62 33.944C104.108 33.944 103.687 34.0507 103.356 34.264C103.026 34.4773 102.839 34.808 102.796 35.256H100.972C101.004 34.7227 101.132 34.28 101.356 33.928C101.58 33.576 101.863 33.2933 102.204 33.08C102.556 32.8667 102.951 32.7173 103.388 32.632C103.826 32.5467 104.274 32.504 104.732 32.504C105.138 32.504 105.538 32.5467 105.932 32.632C106.327 32.7173 106.679 32.856 106.988 33.048C107.308 33.24 107.564 33.4907 107.756 33.8C107.948 34.0987 108.044 34.4667 108.044 34.904V39.16ZM106.22 36.856C105.943 37.0373 105.602 37.1493 105.196 37.192C104.791 37.224 104.386 37.2773 103.98 37.352C103.788 37.384 103.602 37.432 103.42 37.496C103.239 37.5493 103.079 37.6293 102.94 37.736C102.802 37.832 102.69 37.9653 102.604 38.136C102.53 38.296 102.492 38.4933 102.492 38.728C102.492 38.9307 102.551 39.1013 102.668 39.24C102.786 39.3787 102.924 39.4907 103.084 39.576C103.255 39.6507 103.436 39.704 103.628 39.736C103.831 39.768 104.012 39.784 104.172 39.784C104.375 39.784 104.594 39.7573 104.828 39.704C105.063 39.6507 105.282 39.56 105.484 39.432C105.698 39.304 105.874 39.144 106.012 38.952C106.151 38.7493 106.22 38.504 106.22 38.216V36.856ZM110.055 29.576H111.879V41H110.055V29.576ZM117.487 29.576H126.735V31.304H123.103V41H121.103V31.304H117.487V29.576ZM127.852 29.576H129.676V31.304H127.852V29.576ZM127.852 32.728H129.676V41H127.852V32.728ZM131.663 32.728H133.391V33.88H133.439C133.578 33.6773 133.727 33.4907 133.887 33.32C134.047 33.1493 134.223 33.0053 134.415 32.888C134.618 32.7707 134.847 32.68 135.103 32.616C135.359 32.5413 135.652 32.504 135.983 32.504C136.484 32.504 136.948 32.616 137.375 32.84C137.812 33.064 138.122 33.4107 138.303 33.88C138.612 33.4533 138.97 33.1173 139.375 32.872C139.78 32.6267 140.287 32.504 140.895 32.504C141.77 32.504 142.447 32.7173 142.927 33.144C143.418 33.5707 143.663 34.2853 143.663 35.288V41H141.839V36.168C141.839 35.8373 141.828 35.5387 141.807 35.272C141.786 34.9947 141.722 34.76 141.615 34.568C141.519 34.3653 141.37 34.2107 141.167 34.104C140.964 33.9973 140.687 33.944 140.335 33.944C139.716 33.944 139.268 34.136 138.991 34.52C138.714 34.904 138.575 35.448 138.575 36.152V41H136.751V35.688C136.751 35.112 136.644 34.68 136.431 34.392C136.228 34.0933 135.85 33.944 135.295 33.944C135.06 33.944 134.831 33.992 134.607 34.088C134.394 34.184 134.202 34.3227 134.031 34.504C133.871 34.6853 133.738 34.9093 133.631 35.176C133.535 35.4427 133.487 35.7467 133.487 36.088V41H131.663V32.728ZM151.265 36.136C151.244 35.848 151.18 35.5707 151.073 35.304C150.977 35.0373 150.838 34.808 150.657 34.616C150.486 34.4133 150.273 34.2533 150.017 34.136C149.772 34.008 149.494 33.944 149.185 33.944C148.865 33.944 148.572 34.0027 148.305 34.12C148.049 34.2267 147.825 34.3813 147.633 34.584C147.452 34.776 147.302 35.0053 147.185 35.272C147.078 35.5387 147.02 35.8267 147.009 36.136H151.265ZM147.009 37.336C147.009 37.656 147.052 37.9653 147.137 38.264C147.233 38.5627 147.372 38.824 147.553 39.048C147.734 39.272 147.964 39.4533 148.241 39.592C148.518 39.72 148.849 39.784 149.233 39.784C149.766 39.784 150.193 39.672 150.513 39.448C150.844 39.2133 151.089 38.8667 151.249 38.408H152.977C152.881 38.856 152.716 39.256 152.481 39.608C152.246 39.96 151.964 40.2587 151.633 40.504C151.302 40.7387 150.929 40.9147 150.513 41.032C150.108 41.16 149.681 41.224 149.233 41.224C148.582 41.224 148.006 41.1173 147.505 40.904C147.004 40.6907 146.577 40.392 146.225 40.008C145.884 39.624 145.622 39.1653 145.441 38.632C145.27 38.0987 145.185 37.512 145.185 36.872C145.185 36.2853 145.276 35.7307 145.457 35.208C145.649 34.6747 145.916 34.2107 146.257 33.816C146.609 33.4107 147.03 33.0907 147.521 32.856C148.012 32.6213 148.566 32.504 149.185 32.504C149.836 32.504 150.417 32.6427 150.929 32.92C151.452 33.1867 151.884 33.544 152.225 33.992C152.566 34.44 152.812 34.9573 152.961 35.544C153.121 36.12 153.164 36.7173 153.089 37.336H147.009ZM159.057 29.576H161.057V36.232C161.057 36.616 161.073 37.0053 161.105 37.4C161.147 37.7947 161.254 38.152 161.425 38.472C161.606 38.7813 161.873 39.0373 162.225 39.24C162.587 39.4427 163.094 39.544 163.745 39.544C164.395 39.544 164.897 39.4427 165.249 39.24C165.611 39.0373 165.878 38.7813 166.049 38.472C166.23 38.152 166.337 37.7947 166.369 37.4C166.411 37.0053 166.433 36.616 166.433 36.232V29.576H168.433V36.888C168.433 37.624 168.321 38.264 168.097 38.808C167.873 39.352 167.553 39.8107 167.137 40.184C166.731 40.5467 166.241 40.8187 165.665 41C165.089 41.1813 164.449 41.272 163.745 41.272C163.041 41.272 162.401 41.1813 161.825 41C161.249 40.8187 160.753 40.5467 160.337 40.184C159.931 39.8107 159.617 39.352 159.393 38.808C159.169 38.264 159.057 37.624 159.057 36.888V29.576ZM170.524 32.728H172.252V33.848H172.284C172.54 33.368 172.897 33.0267 173.356 32.824C173.814 32.6107 174.31 32.504 174.844 32.504C175.494 32.504 176.06 32.6213 176.54 32.856C177.03 33.08 177.436 33.3947 177.756 33.8C178.076 34.1947 178.316 34.6587 178.476 35.192C178.636 35.7253 178.716 36.296 178.716 36.904C178.716 37.4587 178.641 37.9973 178.492 38.52C178.353 39.0427 178.134 39.5067 177.836 39.912C177.548 40.3067 177.18 40.6267 176.732 40.872C176.284 41.1067 175.756 41.224 175.148 41.224C174.881 41.224 174.614 41.1973 174.348 41.144C174.081 41.1013 173.825 41.0267 173.58 40.92C173.334 40.8133 173.105 40.68 172.892 40.52C172.689 40.3493 172.518 40.152 172.38 39.928H172.348V44.056H170.524V32.728ZM176.892 36.872C176.892 36.4987 176.844 36.136 176.748 35.784C176.652 35.432 176.508 35.1227 176.316 34.856C176.124 34.5787 175.884 34.36 175.596 34.2C175.308 34.0293 174.977 33.944 174.604 33.944C173.836 33.944 173.254 34.2107 172.86 34.744C172.476 35.2773 172.284 35.9867 172.284 36.872C172.284 37.288 172.332 37.6773 172.428 38.04C172.534 38.392 172.689 38.696 172.892 38.952C173.094 39.208 173.334 39.4107 173.612 39.56C173.9 39.7093 174.23 39.784 174.604 39.784C175.02 39.784 175.372 39.6987 175.66 39.528C175.948 39.3573 176.182 39.1387 176.364 38.872C176.556 38.5947 176.689 38.2853 176.764 37.944C176.849 37.592 176.892 37.2347 176.892 36.872ZM188.049 41H186.321V39.88H186.289C186.044 40.36 185.686 40.7067 185.217 40.92C184.748 41.1227 184.252 41.224 183.729 41.224C183.078 41.224 182.508 41.112 182.017 40.888C181.537 40.6533 181.137 40.3387 180.817 39.944C180.497 39.5493 180.257 39.0853 180.097 38.552C179.937 38.008 179.857 37.4267 179.857 36.808C179.857 36.0613 179.958 35.416 180.161 34.872C180.364 34.328 180.63 33.88 180.961 33.528C181.302 33.176 181.686 32.92 182.113 32.76C182.55 32.5893 182.993 32.504 183.441 32.504C183.697 32.504 183.958 32.5307 184.225 32.584C184.492 32.6267 184.748 32.7013 184.993 32.808C185.238 32.9147 185.462 33.0533 185.665 33.224C185.878 33.384 186.054 33.576 186.193 33.8H186.225V29.576H188.049V41ZM181.681 36.952C181.681 37.304 181.724 37.6507 181.809 37.992C181.905 38.3333 182.044 38.6373 182.225 38.904C182.417 39.1707 182.657 39.384 182.945 39.544C183.233 39.704 183.574 39.784 183.969 39.784C184.374 39.784 184.721 39.6987 185.009 39.528C185.308 39.3573 185.548 39.1333 185.729 38.856C185.921 38.5787 186.06 38.2693 186.145 37.928C186.241 37.576 186.289 37.2187 186.289 36.856C186.289 35.9387 186.081 35.224 185.665 34.712C185.26 34.2 184.705 33.944 184.001 33.944C183.574 33.944 183.212 34.0347 182.913 34.216C182.625 34.3867 182.385 34.616 182.193 34.904C182.012 35.1813 181.878 35.5013 181.793 35.864C181.718 36.216 181.681 36.5787 181.681 36.952ZM196.966 39.16C196.966 39.384 196.993 39.544 197.046 39.64C197.11 39.736 197.227 39.784 197.398 39.784C197.451 39.784 197.515 39.784 197.59 39.784C197.665 39.784 197.75 39.7733 197.846 39.752V41.016C197.782 41.0373 197.697 41.0587 197.59 41.08C197.494 41.112 197.393 41.1387 197.286 41.16C197.179 41.1813 197.073 41.1973 196.966 41.208C196.859 41.2187 196.769 41.224 196.694 41.224C196.321 41.224 196.011 41.1493 195.766 41C195.521 40.8507 195.361 40.5893 195.286 40.216C194.923 40.568 194.475 40.824 193.942 40.984C193.419 41.144 192.913 41.224 192.422 41.224C192.049 41.224 191.691 41.1707 191.35 41.064C191.009 40.968 190.705 40.824 190.438 40.632C190.182 40.4293 189.974 40.1787 189.814 39.88C189.665 39.5707 189.59 39.2133 189.59 38.808C189.59 38.296 189.681 37.88 189.862 37.56C190.054 37.24 190.299 36.9893 190.598 36.808C190.907 36.6267 191.249 36.4987 191.622 36.424C192.006 36.3387 192.39 36.2747 192.774 36.232C193.105 36.168 193.419 36.1253 193.718 36.104C194.017 36.072 194.278 36.024 194.502 35.96C194.737 35.896 194.918 35.8 195.046 35.672C195.185 35.5333 195.254 35.3307 195.254 35.064C195.254 34.8293 195.195 34.6373 195.078 34.488C194.971 34.3387 194.833 34.2267 194.662 34.152C194.502 34.0667 194.321 34.0133 194.118 33.992C193.915 33.96 193.723 33.944 193.542 33.944C193.03 33.944 192.609 34.0507 192.278 34.264C191.947 34.4773 191.761 34.808 191.718 35.256H189.894C189.926 34.7227 190.054 34.28 190.278 33.928C190.502 33.576 190.785 33.2933 191.126 33.08C191.478 32.8667 191.873 32.7173 192.31 32.632C192.747 32.5467 193.195 32.504 193.654 32.504C194.059 32.504 194.459 32.5467 194.854 32.632C195.249 32.7173 195.601 32.856 195.91 33.048C196.23 33.24 196.486 33.4907 196.678 33.8C196.87 34.0987 196.966 34.4667 196.966 34.904V39.16ZM195.142 36.856C194.865 37.0373 194.523 37.1493 194.118 37.192C193.713 37.224 193.307 37.2773 192.902 37.352C192.71 37.384 192.523 37.432 192.342 37.496C192.161 37.5493 192.001 37.6293 191.862 37.736C191.723 37.832 191.611 37.9653 191.526 38.136C191.451 38.296 191.414 38.4933 191.414 38.728C191.414 38.9307 191.473 39.1013 191.59 39.24C191.707 39.3787 191.846 39.4907 192.006 39.576C192.177 39.6507 192.358 39.704 192.55 39.736C192.753 39.768 192.934 39.784 193.094 39.784C193.297 39.784 193.515 39.7573 193.75 39.704C193.985 39.6507 194.203 39.56 194.406 39.432C194.619 39.304 194.795 39.144 194.934 38.952C195.073 38.7493 195.142 38.504 195.142 38.216V36.856ZM198.097 32.728H199.473V30.248H201.297V32.728H202.945V34.088H201.297V38.504C201.297 38.696 201.302 38.8613 201.313 39C201.334 39.1387 201.371 39.256 201.425 39.352C201.489 39.448 201.579 39.5227 201.697 39.576C201.814 39.6187 201.974 39.64 202.177 39.64C202.305 39.64 202.433 39.64 202.561 39.64C202.689 39.6293 202.817 39.608 202.945 39.576V40.984C202.742 41.0053 202.545 41.0267 202.353 41.048C202.161 41.0693 201.963 41.08 201.761 41.08C201.281 41.08 200.891 41.0373 200.593 40.952C200.305 40.856 200.075 40.7227 199.905 40.552C199.745 40.3707 199.633 40.1467 199.569 39.88C199.515 39.6133 199.483 39.3093 199.473 38.968V34.088H198.097V32.728ZM209.937 36.136C209.916 35.848 209.852 35.5707 209.745 35.304C209.649 35.0373 209.51 34.808 209.329 34.616C209.158 34.4133 208.945 34.2533 208.689 34.136C208.444 34.008 208.166 33.944 207.857 33.944C207.537 33.944 207.244 34.0027 206.977 34.12C206.721 34.2267 206.497 34.3813 206.305 34.584C206.124 34.776 205.974 35.0053 205.857 35.272C205.75 35.5387 205.692 35.8267 205.681 36.136H209.937ZM205.681 37.336C205.681 37.656 205.724 37.9653 205.809 38.264C205.905 38.5627 206.044 38.824 206.225 39.048C206.406 39.272 206.636 39.4533 206.913 39.592C207.19 39.72 207.521 39.784 207.905 39.784C208.438 39.784 208.865 39.672 209.185 39.448C209.516 39.2133 209.761 38.8667 209.921 38.408H211.649C211.553 38.856 211.388 39.256 211.153 39.608C210.918 39.96 210.636 40.2587 210.305 40.504C209.974 40.7387 209.601 40.9147 209.185 41.032C208.78 41.16 208.353 41.224 207.905 41.224C207.254 41.224 206.678 41.1173 206.177 40.904C205.676 40.6907 205.249 40.392 204.897 40.008C204.556 39.624 204.294 39.1653 204.113 38.632C203.942 38.0987 203.857 37.512 203.857 36.872C203.857 36.2853 203.948 35.7307 204.129 35.208C204.321 34.6747 204.588 34.2107 204.929 33.816C205.281 33.4107 205.702 33.0907 206.193 32.856C206.684 32.6213 207.238 32.504 207.857 32.504C208.508 32.504 209.089 32.6427 209.601 32.92C210.124 33.1867 210.556 33.544 210.897 33.992C211.238 34.44 211.484 34.9573 211.633 35.544C211.793 36.12 211.836 36.7173 211.761 37.336H205.681ZM222.721 30.936C222.113 30.936 221.585 31.0587 221.137 31.304C220.699 31.5493 220.342 31.88 220.065 32.296C219.787 32.7013 219.579 33.1653 219.441 33.688C219.313 34.2107 219.249 34.744 219.249 35.288C219.249 35.832 219.313 36.3653 219.441 36.888C219.579 37.4107 219.787 37.88 220.065 38.296C220.342 38.7013 220.699 39.0267 221.137 39.272C221.585 39.5173 222.113 39.64 222.721 39.64C223.329 39.64 223.851 39.5173 224.289 39.272C224.737 39.0267 225.099 38.7013 225.377 38.296C225.654 37.88 225.857 37.4107 225.985 36.888C226.123 36.3653 226.193 35.832 226.193 35.288C226.193 34.744 226.123 34.2107 225.985 33.688C225.857 33.1653 225.654 32.7013 225.377 32.296C225.099 31.88 224.737 31.5493 224.289 31.304C223.851 31.0587 223.329 30.936 222.721 30.936ZM222.721 29.304C223.574 29.304 224.337 29.464 225.009 29.784C225.691 30.104 226.267 30.536 226.737 31.08C227.206 31.624 227.563 32.2587 227.809 32.984C228.065 33.7093 228.193 34.4773 228.193 35.288C228.193 36.1093 228.065 36.8827 227.809 37.608C227.563 38.3333 227.206 38.968 226.737 39.512C226.267 40.056 225.691 40.488 225.009 40.808C224.337 41.1173 223.574 41.272 222.721 41.272C221.867 41.272 221.099 41.1173 220.417 40.808C219.745 40.488 219.174 40.056 218.705 39.512C218.235 38.968 217.873 38.3333 217.617 37.608C217.371 36.8827 217.249 36.1093 217.249 35.288C217.249 34.4773 217.371 33.7093 217.617 32.984C217.873 32.2587 218.235 31.624 218.705 31.08C219.174 30.536 219.745 30.104 220.417 29.784C221.099 29.464 221.867 29.304 222.721 29.304ZM229.757 32.728H231.485V33.944L231.517 33.976C231.794 33.5173 232.157 33.16 232.605 32.904C233.053 32.6373 233.549 32.504 234.093 32.504C235 32.504 235.714 32.7387 236.237 33.208C236.76 33.6773 237.021 34.3813 237.021 35.32V41H235.197V35.8C235.176 35.1493 235.037 34.68 234.781 34.392C234.525 34.0933 234.125 33.944 233.581 33.944C233.272 33.944 232.994 34.0027 232.749 34.12C232.504 34.2267 232.296 34.3813 232.125 34.584C231.954 34.776 231.821 35.0053 231.725 35.272C231.629 35.5387 231.581 35.8213 231.581 36.12V41H229.757V32.728ZM243.654 29.576H245.654V39.272H251.462V41H243.654V29.576ZM258.265 36.136C258.244 35.848 258.18 35.5707 258.073 35.304C257.977 35.0373 257.838 34.808 257.657 34.616C257.486 34.4133 257.273 34.2533 257.017 34.136C256.772 34.008 256.494 33.944 256.185 33.944C255.865 33.944 255.572 34.0027 255.305 34.12C255.049 34.2267 254.825 34.3813 254.633 34.584C254.452 34.776 254.302 35.0053 254.185 35.272C254.078 35.5387 254.02 35.8267 254.009 36.136H258.265ZM254.009 37.336C254.009 37.656 254.052 37.9653 254.137 38.264C254.233 38.5627 254.372 38.824 254.553 39.048C254.734 39.272 254.964 39.4533 255.241 39.592C255.518 39.72 255.849 39.784 256.233 39.784C256.766 39.784 257.193 39.672 257.513 39.448C257.844 39.2133 258.089 38.8667 258.249 38.408H259.977C259.881 38.856 259.716 39.256 259.481 39.608C259.246 39.96 258.964 40.2587 258.633 40.504C258.302 40.7387 257.929 40.9147 257.513 41.032C257.108 41.16 256.681 41.224 256.233 41.224C255.582 41.224 255.006 41.1173 254.505 40.904C254.004 40.6907 253.577 40.392 253.225 40.008C252.884 39.624 252.622 39.1653 252.441 38.632C252.27 38.0987 252.185 37.512 252.185 36.872C252.185 36.2853 252.276 35.7307 252.457 35.208C252.649 34.6747 252.916 34.2107 253.257 33.816C253.609 33.4107 254.03 33.0907 254.521 32.856C255.012 32.6213 255.566 32.504 256.185 32.504C256.836 32.504 257.417 32.6427 257.929 32.92C258.452 33.1867 258.884 33.544 259.225 33.992C259.566 34.44 259.812 34.9573 259.961 35.544C260.121 36.12 260.164 36.7173 260.089 37.336H254.009ZM268.404 39.16C268.404 39.384 268.43 39.544 268.484 39.64C268.548 39.736 268.665 39.784 268.836 39.784C268.889 39.784 268.953 39.784 269.028 39.784C269.102 39.784 269.188 39.7733 269.284 39.752V41.016C269.22 41.0373 269.134 41.0587 269.028 41.08C268.932 41.112 268.83 41.1387 268.724 41.16C268.617 41.1813 268.51 41.1973 268.404 41.208C268.297 41.2187 268.206 41.224 268.132 41.224C267.758 41.224 267.449 41.1493 267.204 41C266.958 40.8507 266.798 40.5893 266.724 40.216C266.361 40.568 265.913 40.824 265.38 40.984C264.857 41.144 264.35 41.224 263.86 41.224C263.486 41.224 263.129 41.1707 262.788 41.064C262.446 40.968 262.142 40.824 261.876 40.632C261.62 40.4293 261.412 40.1787 261.252 39.88C261.102 39.5707 261.028 39.2133 261.028 38.808C261.028 38.296 261.118 37.88 261.3 37.56C261.492 37.24 261.737 36.9893 262.036 36.808C262.345 36.6267 262.686 36.4987 263.06 36.424C263.444 36.3387 263.828 36.2747 264.212 36.232C264.542 36.168 264.857 36.1253 265.156 36.104C265.454 36.072 265.716 36.024 265.94 35.96C266.174 35.896 266.356 35.8 266.484 35.672C266.622 35.5333 266.692 35.3307 266.692 35.064C266.692 34.8293 266.633 34.6373 266.516 34.488C266.409 34.3387 266.27 34.2267 266.1 34.152C265.94 34.0667 265.758 34.0133 265.556 33.992C265.353 33.96 265.161 33.944 264.98 33.944C264.468 33.944 264.046 34.0507 263.716 34.264C263.385 34.4773 263.198 34.808 263.156 35.256H261.332C261.364 34.7227 261.492 34.28 261.716 33.928C261.94 33.576 262.222 33.2933 262.564 33.08C262.916 32.8667 263.31 32.7173 263.748 32.632C264.185 32.5467 264.633 32.504 265.092 32.504C265.497 32.504 265.897 32.5467 266.292 32.632C266.686 32.7173 267.038 32.856 267.348 33.048C267.668 33.24 267.924 33.4907 268.116 33.8C268.308 34.0987 268.404 34.4667 268.404 34.904V39.16ZM266.58 36.856C266.302 37.0373 265.961 37.1493 265.556 37.192C265.15 37.224 264.745 37.2773 264.34 37.352C264.148 37.384 263.961 37.432 263.78 37.496C263.598 37.5493 263.438 37.6293 263.3 37.736C263.161 37.832 263.049 37.9653 262.964 38.136C262.889 38.296 262.852 38.4933 262.852 38.728C262.852 38.9307 262.91 39.1013 263.028 39.24C263.145 39.3787 263.284 39.4907 263.444 39.576C263.614 39.6507 263.796 39.704 263.988 39.736C264.19 39.768 264.372 39.784 264.532 39.784C264.734 39.784 264.953 39.7573 265.188 39.704C265.422 39.6507 265.641 39.56 265.844 39.432C266.057 39.304 266.233 39.144 266.372 38.952C266.51 38.7493 266.58 38.504 266.58 38.216V36.856ZM278.158 41H276.43V39.88H276.398C276.153 40.36 275.796 40.7067 275.326 40.92C274.857 41.1227 274.361 41.224 273.838 41.224C273.188 41.224 272.617 41.112 272.126 40.888C271.646 40.6533 271.246 40.3387 270.926 39.944C270.606 39.5493 270.366 39.0853 270.206 38.552C270.046 38.008 269.966 37.4267 269.966 36.808C269.966 36.0613 270.068 35.416 270.27 34.872C270.473 34.328 270.74 33.88 271.07 33.528C271.412 33.176 271.796 32.92 272.222 32.76C272.66 32.5893 273.102 32.504 273.55 32.504C273.806 32.504 274.068 32.5307 274.334 32.584C274.601 32.6267 274.857 32.7013 275.102 32.808C275.348 32.9147 275.572 33.0533 275.774 33.224C275.988 33.384 276.164 33.576 276.302 33.8H276.334V29.576H278.158V41ZM271.79 36.952C271.79 37.304 271.833 37.6507 271.918 37.992C272.014 38.3333 272.153 38.6373 272.334 38.904C272.526 39.1707 272.766 39.384 273.054 39.544C273.342 39.704 273.684 39.784 274.078 39.784C274.484 39.784 274.83 39.6987 275.118 39.528C275.417 39.3573 275.657 39.1333 275.838 38.856C276.03 38.5787 276.169 38.2693 276.254 37.928C276.35 37.576 276.398 37.2187 276.398 36.856C276.398 35.9387 276.19 35.224 275.774 34.712C275.369 34.2 274.814 33.944 274.11 33.944C273.684 33.944 273.321 34.0347 273.022 34.216C272.734 34.3867 272.494 34.616 272.302 34.904C272.121 35.1813 271.988 35.5013 271.902 35.864C271.828 36.216 271.79 36.5787 271.79 36.952ZM82.528 59.192C82.528 59.6293 82.6027 60.0027 82.752 60.312C82.9013 60.6213 83.1093 60.8773 83.376 61.08C83.6427 61.272 83.9467 61.416 84.288 61.512C84.64 61.5973 85.0187 61.64 85.424 61.64C85.8613 61.64 86.2347 61.592 86.544 61.496C86.8533 61.3893 87.104 61.256 87.296 61.096C87.488 60.936 87.6267 60.7547 87.712 60.552C87.7973 60.3387 87.84 60.1253 87.84 59.912C87.84 59.4747 87.7387 59.1547 87.536 58.952C87.344 58.7387 87.1307 58.5893 86.896 58.504C86.4907 58.3547 86.016 58.216 85.472 58.088C84.9387 57.9493 84.2773 57.7733 83.488 57.56C82.9973 57.432 82.5867 57.2667 82.256 57.064C81.936 56.8507 81.68 56.616 81.488 56.36C81.296 56.104 81.1573 55.832 81.072 55.544C80.9973 55.256 80.96 54.9627 80.96 54.664C80.96 54.088 81.0773 53.592 81.312 53.176C81.5573 52.7493 81.8773 52.3973 82.272 52.12C82.6667 51.8427 83.1147 51.64 83.616 51.512C84.1173 51.3733 84.624 51.304 85.136 51.304C85.7333 51.304 86.2933 51.384 86.816 51.544C87.3493 51.6933 87.8133 51.9227 88.208 52.232C88.6133 52.5413 88.9333 52.9253 89.168 53.384C89.4027 53.832 89.52 54.3547 89.52 54.952H87.52C87.4667 54.216 87.216 53.6987 86.768 53.4C86.32 53.0907 85.7493 52.936 85.056 52.936C84.8213 52.936 84.5813 52.9627 84.336 53.016C84.0907 53.0587 83.8667 53.1387 83.664 53.256C83.4613 53.3627 83.2907 53.512 83.152 53.704C83.024 53.896 82.96 54.136 82.96 54.424C82.96 54.8293 83.0827 55.1493 83.328 55.384C83.584 55.608 83.9147 55.7787 84.32 55.896C84.3627 55.9067 84.528 55.9547 84.816 56.04C85.1147 56.1147 85.4453 56.2 85.808 56.296C86.1707 56.392 86.5227 56.488 86.864 56.584C87.216 56.6693 87.4667 56.7333 87.616 56.776C87.9893 56.8933 88.3147 57.0533 88.592 57.256C88.8693 57.4587 89.0987 57.6933 89.28 57.96C89.472 58.216 89.6107 58.4933 89.696 58.792C89.792 59.0907 89.84 59.3893 89.84 59.688C89.84 60.328 89.7067 60.8773 89.44 61.336C89.184 61.784 88.8427 62.152 88.416 62.44C87.9893 62.728 87.504 62.936 86.96 63.064C86.416 63.2027 85.8613 63.272 85.296 63.272C84.6453 63.272 84.032 63.192 83.456 63.032C82.88 62.872 82.3787 62.6267 81.952 62.296C81.5253 61.9653 81.184 61.544 80.928 61.032C80.672 60.5093 80.5387 59.896 80.528 59.192H82.528ZM90.503 54.728H91.879V52.248H93.703V54.728H95.351V56.088H93.703V60.504C93.703 60.696 93.7083 60.8613 93.719 61C93.7403 61.1387 93.7777 61.256 93.831 61.352C93.895 61.448 93.9857 61.5227 94.103 61.576C94.2203 61.6187 94.3803 61.64 94.583 61.64C94.711 61.64 94.839 61.64 94.967 61.64C95.095 61.6293 95.223 61.608 95.351 61.576V62.984C95.1483 63.0053 94.951 63.0267 94.759 63.048C94.567 63.0693 94.3697 63.08 94.167 63.08C93.687 63.08 93.2977 63.0373 92.999 62.952C92.711 62.856 92.4817 62.7227 92.311 62.552C92.151 62.3707 92.039 62.1467 91.975 61.88C91.9217 61.6133 91.8897 61.3093 91.879 60.968V56.088H90.503V54.728ZM103.591 61.16C103.591 61.384 103.618 61.544 103.671 61.64C103.735 61.736 103.852 61.784 104.023 61.784C104.076 61.784 104.14 61.784 104.215 61.784C104.29 61.784 104.375 61.7733 104.471 61.752V63.016C104.407 63.0373 104.322 63.0587 104.215 63.08C104.119 63.112 104.018 63.1387 103.911 63.16C103.804 63.1813 103.698 63.1973 103.591 63.208C103.484 63.2187 103.394 63.224 103.319 63.224C102.946 63.224 102.636 63.1493 102.391 63C102.146 62.8507 101.986 62.5893 101.911 62.216C101.548 62.568 101.1 62.824 100.567 62.984C100.044 63.144 99.5378 63.224 99.0471 63.224C98.6738 63.224 98.3165 63.1707 97.9751 63.064C97.6338 62.968 97.3298 62.824 97.0631 62.632C96.8071 62.4293 96.5991 62.1787 96.4391 61.88C96.2898 61.5707 96.2151 61.2133 96.2151 60.808C96.2151 60.296 96.3058 59.88 96.4871 59.56C96.6791 59.24 96.9245 58.9893 97.2231 58.808C97.5325 58.6267 97.8738 58.4987 98.2471 58.424C98.6311 58.3387 99.0151 58.2747 99.3991 58.232C99.7298 58.168 100.044 58.1253 100.343 58.104C100.642 58.072 100.903 58.024 101.127 57.96C101.362 57.896 101.543 57.8 101.671 57.672C101.81 57.5333 101.879 57.3307 101.879 57.064C101.879 56.8293 101.82 56.6373 101.703 56.488C101.596 56.3387 101.458 56.2267 101.287 56.152C101.127 56.0667 100.946 56.0133 100.743 55.992C100.54 55.96 100.348 55.944 100.167 55.944C99.6551 55.944 99.2338 56.0507 98.9031 56.264C98.5725 56.4773 98.3858 56.808 98.3431 57.256H96.5191C96.5511 56.7227 96.6791 56.28 96.9031 55.928C97.1271 55.576 97.4098 55.2933 97.7511 55.08C98.1031 54.8667 98.4978 54.7173 98.9351 54.632C99.3725 54.5467 99.8205 54.504 100.279 54.504C100.684 54.504 101.084 54.5467 101.479 54.632C101.874 54.7173 102.226 54.856 102.535 55.048C102.855 55.24 103.111 55.4907 103.303 55.8C103.495 56.0987 103.591 56.4667 103.591 56.904V61.16ZM101.767 58.856C101.49 59.0373 101.148 59.1493 100.743 59.192C100.338 59.224 99.9325 59.2773 99.5271 59.352C99.3351 59.384 99.1485 59.432 98.9671 59.496C98.7858 59.5493 98.6258 59.6293 98.4871 59.736C98.3485 59.832 98.2365 59.9653 98.1511 60.136C98.0765 60.296 98.0391 60.4933 98.0391 60.728C98.0391 60.9307 98.0978 61.1013 98.2151 61.24C98.3325 61.3787 98.4711 61.4907 98.6311 61.576C98.8018 61.6507 98.9831 61.704 99.1751 61.736C99.3778 61.768 99.5591 61.784 99.7191 61.784C99.9218 61.784 100.14 61.7573 100.375 61.704C100.61 61.6507 100.828 61.56 101.031 61.432C101.244 61.304 101.42 61.144 101.559 60.952C101.698 60.7493 101.767 60.504 101.767 60.216V58.856ZM104.722 54.728H106.098V52.248H107.922V54.728H109.57V56.088H107.922V60.504C107.922 60.696 107.927 60.8613 107.938 61C107.959 61.1387 107.996 61.256 108.05 61.352C108.114 61.448 108.204 61.5227 108.322 61.576C108.439 61.6187 108.599 61.64 108.802 61.64C108.93 61.64 109.058 61.64 109.186 61.64C109.314 61.6293 109.442 61.608 109.57 61.576V62.984C109.367 63.0053 109.17 63.0267 108.978 63.048C108.786 63.0693 108.588 63.08 108.386 63.08C107.906 63.08 107.516 63.0373 107.218 62.952C106.93 62.856 106.7 62.7227 106.53 62.552C106.37 62.3707 106.258 62.1467 106.194 61.88C106.14 61.6133 106.108 61.3093 106.098 60.968V56.088H104.722V54.728ZM118.146 63H116.354V61.848H116.322C116.098 62.264 115.762 62.6 115.314 62.856C114.877 63.1013 114.429 63.224 113.97 63.224C112.882 63.224 112.093 62.9573 111.602 62.424C111.122 61.88 110.882 61.064 110.882 59.976V54.728H112.706V59.8C112.706 60.5253 112.845 61.0373 113.122 61.336C113.399 61.6347 113.789 61.784 114.29 61.784C114.674 61.784 114.994 61.7253 115.25 61.608C115.506 61.4907 115.714 61.336 115.874 61.144C116.034 60.9413 116.146 60.7013 116.21 60.424C116.285 60.1467 116.322 59.848 116.322 59.528V54.728H118.146V63ZM121.445 60.344C121.499 60.8773 121.701 61.2507 122.053 61.464C122.405 61.6773 122.827 61.784 123.317 61.784C123.488 61.784 123.68 61.7733 123.893 61.752C124.117 61.72 124.325 61.6667 124.517 61.592C124.709 61.5173 124.864 61.4107 124.981 61.272C125.109 61.1227 125.168 60.9307 125.157 60.696C125.147 60.4613 125.061 60.2693 124.901 60.12C124.741 59.9707 124.533 59.8533 124.277 59.768C124.032 59.672 123.749 59.592 123.429 59.528C123.109 59.464 122.784 59.3947 122.453 59.32C122.112 59.2453 121.781 59.1547 121.461 59.048C121.152 58.9413 120.869 58.7973 120.613 58.616C120.368 58.4347 120.171 58.2053 120.021 57.928C119.872 57.64 119.797 57.288 119.797 56.872C119.797 56.424 119.904 56.0507 120.117 55.752C120.341 55.4427 120.619 55.1973 120.949 55.016C121.291 54.824 121.664 54.6907 122.069 54.616C122.485 54.5413 122.88 54.504 123.253 54.504C123.68 54.504 124.085 54.552 124.469 54.648C124.864 54.7333 125.216 54.8773 125.525 55.08C125.845 55.2827 126.107 55.5493 126.309 55.88C126.523 56.2 126.656 56.5893 126.709 57.048H124.805C124.72 56.6107 124.517 56.3173 124.197 56.168C123.888 56.0187 123.531 55.944 123.125 55.944C122.997 55.944 122.843 55.9547 122.661 55.976C122.491 55.9973 122.325 56.04 122.165 56.104C122.016 56.1573 121.888 56.2427 121.781 56.36C121.675 56.4667 121.621 56.6107 121.621 56.792C121.621 57.016 121.696 57.1973 121.845 57.336C122.005 57.4747 122.208 57.592 122.453 57.688C122.709 57.7733 122.997 57.848 123.317 57.912C123.637 57.976 123.968 58.0453 124.309 58.12C124.64 58.1947 124.965 58.2853 125.285 58.392C125.605 58.4987 125.888 58.6427 126.133 58.824C126.389 59.0053 126.592 59.2347 126.741 59.512C126.901 59.7893 126.981 60.1307 126.981 60.536C126.981 61.0267 126.869 61.4427 126.645 61.784C126.421 62.1253 126.128 62.4027 125.765 62.616C125.413 62.8293 125.019 62.984 124.581 63.08C124.144 63.176 123.712 63.224 123.285 63.224C122.763 63.224 122.277 63.1653 121.829 63.048C121.392 62.9307 121.008 62.7547 120.677 62.52C120.357 62.2747 120.101 61.976 119.909 61.624C119.728 61.2613 119.632 60.8347 119.621 60.344H121.445Z" fill="white"/>
</svg>
